<svg width="165" height="32" viewBox="0 0 165 32" fill="none" xmlns="http://www.w3.org/2000/svg">
<path d="M46.4283 21.4004H46.33C46.2252 22.0951 45.8713 22.6718 45.2683 23.1306C44.6654 23.5893 43.8462 23.8187 42.8108 23.8187C42.0244 23.8187 41.2904 23.6679 40.6088 23.3665C39.9272 23.065 39.3308 22.6194 38.8197 22.0296C38.3085 21.4397 37.9087 20.7057 37.6204 19.8276C37.332 18.9494 37.1878 17.9336 37.1878 16.7802C37.1878 15.6268 37.3386 14.6044 37.64 13.7131C37.9415 12.8218 38.3609 12.0747 38.8983 11.4718C39.4488 10.8689 40.1042 10.4101 40.8644 10.0956C41.6246 9.78101 42.47 9.62373 43.4006 9.62373C44.6327 9.62373 45.6943 9.89242 46.5856 10.4298C47.4769 10.9541 48.1781 11.7471 48.6893 12.8087L46.2514 14.2046C46.0417 13.6673 45.714 13.2151 45.2683 12.8481C44.8227 12.468 44.2001 12.2779 43.4006 12.2779C42.47 12.2779 41.7294 12.5466 41.1789 13.084C40.6284 13.6214 40.3532 14.4668 40.3532 15.6202V17.8222C40.3532 18.9625 40.6284 19.8079 41.1789 20.3584C41.7294 20.8958 42.47 21.1645 43.4006 21.1645C43.7676 21.1645 44.1149 21.1252 44.4426 21.0465C44.7703 20.9548 45.0586 20.8237 45.3077 20.6533C45.5567 20.4698 45.7468 20.2536 45.8778 20.0045C46.022 19.7555 46.0941 19.4606 46.0941 19.1198V18.4317H43.5382V15.9348H48.9449V23.5828H46.4283V21.4004Z" fill="white"/>
<path d="M58.9177 23.8187C58.1313 23.8187 57.4301 23.6942 56.814 23.4451C56.198 23.183 55.6737 22.8225 55.2412 22.3638C54.8218 21.8919 54.5006 21.3218 54.2778 20.6533C54.0681 19.9849 53.9632 19.2378 53.9632 18.412C53.9632 17.5994 54.0681 16.8654 54.2778 16.21C54.4875 15.5416 54.7955 14.9714 55.2019 14.4996C55.6213 14.0277 56.1325 13.6673 56.7354 13.4182C57.3383 13.1561 58.0264 13.025 58.7998 13.025C59.6517 13.025 60.3792 13.1692 60.9821 13.4575C61.5981 13.7459 62.0962 14.1326 62.4763 14.6175C62.8695 15.1025 63.1513 15.6661 63.3217 16.3083C63.5052 16.9375 63.5969 17.5994 63.5969 18.294V19.1591H56.9713V19.3164C56.9713 19.998 57.1548 20.5419 57.5218 20.9482C57.8888 21.3414 58.4655 21.538 59.2519 21.538C59.8549 21.538 60.3464 21.4201 60.7265 21.1842C61.1066 20.9351 61.4605 20.6402 61.7882 20.2994L63.243 22.1082C62.7843 22.6456 62.1814 23.065 61.4343 23.3665C60.7003 23.6679 59.8614 23.8187 58.9177 23.8187ZM58.8587 15.168C58.2689 15.168 57.8036 15.3646 57.4628 15.7578C57.1352 16.1379 56.9713 16.6491 56.9713 17.2914V17.4486H60.5889V17.2717C60.5889 16.6426 60.4447 16.1379 60.1563 15.7578C59.8811 15.3646 59.4485 15.168 58.8587 15.168Z" fill="white"/>
<path d="M72.7592 23.8187C71.999 23.8187 71.3175 23.6942 70.7145 23.4451C70.1247 23.1961 69.6201 22.8356 69.2007 22.3638C68.7943 21.8919 68.4798 21.3218 68.257 20.6533C68.0341 19.9849 67.9227 19.2378 67.9227 18.412C67.9227 17.5863 68.0341 16.8392 68.257 16.1707C68.4798 15.5022 68.7943 14.9386 69.2007 14.4799C69.6201 14.008 70.1247 13.6476 70.7145 13.3986C71.3175 13.1495 71.999 13.025 72.7592 13.025C73.5194 13.025 74.1945 13.1495 74.7843 13.3986C75.3872 13.6476 75.8918 14.008 76.2981 14.4799C76.7176 14.9386 77.0387 15.5022 77.2615 16.1707C77.4843 16.8392 77.5957 17.5863 77.5957 18.412C77.5957 19.2378 77.4843 19.9849 77.2615 20.6533C77.0387 21.3218 76.7176 21.8919 76.2981 22.3638C75.8918 22.8356 75.3872 23.1961 74.7843 23.4451C74.1945 23.6942 73.5194 23.8187 72.7592 23.8187ZM72.7592 21.5184C73.3359 21.5184 73.7816 21.3414 74.0962 20.9876C74.4107 20.6337 74.568 20.129 74.568 19.4737V17.37C74.568 16.7146 74.4107 16.21 74.0962 15.8561C73.7816 15.5022 73.3359 15.3253 72.7592 15.3253C72.1825 15.3253 71.7369 15.5022 71.4223 15.8561C71.1077 16.21 70.9505 16.7146 70.9505 17.37V19.4737C70.9505 20.129 71.1077 20.6337 71.4223 20.9876C71.7369 21.3414 72.1825 21.5184 72.7592 21.5184Z" fill="white"/>
<path d="M88.9193 21.8526H88.821C88.7424 22.1279 88.6179 22.39 88.4475 22.639C88.2771 22.875 88.0674 23.0847 87.8183 23.2682C87.5824 23.4386 87.3071 23.5696 86.9926 23.6614C86.6911 23.7662 86.3765 23.8187 86.0489 23.8187C84.7382 23.8187 83.7486 23.3599 83.0801 22.4424C82.4117 21.5118 82.0774 20.1684 82.0774 18.412C82.0774 16.6557 82.4117 15.3187 83.0801 14.4013C83.7486 13.4838 84.7382 13.025 86.0489 13.025C86.7173 13.025 87.3072 13.2085 87.8183 13.5755C88.3426 13.9425 88.6768 14.4144 88.821 14.9911H88.9193V9.03391H91.8291V23.5828H88.9193V21.8526ZM87.0122 21.4594C87.5627 21.4594 88.0149 21.3283 88.3688 21.0662C88.7358 20.7909 88.9193 20.4174 88.9193 19.9455V16.8981C88.9193 16.4263 88.7358 16.0593 88.3688 15.7972C88.0149 15.5219 87.5627 15.3843 87.0122 15.3843C86.4617 15.3843 86.003 15.5809 85.636 15.9741C85.2821 16.3542 85.1052 16.8719 85.1052 17.5273V19.3164C85.1052 19.9718 85.2821 20.496 85.636 20.8892C86.003 21.2694 86.4617 21.4594 87.0122 21.4594Z" fill="white"/>
<path d="M101.775 23.8187C100.989 23.8187 100.288 23.6942 99.6717 23.4451C99.0556 23.183 98.5313 22.8225 98.0988 22.3638C97.6794 21.8919 97.3583 21.3218 97.1355 20.6533C96.9257 19.9849 96.8209 19.2378 96.8209 18.412C96.8209 17.5994 96.9257 16.8654 97.1355 16.21C97.3452 15.5416 97.6532 14.9714 98.0595 14.4996C98.4789 14.0277 98.9901 13.6673 99.593 13.4182C100.196 13.1561 100.884 13.025 101.657 13.025C102.509 13.025 103.237 13.1692 103.84 13.4575C104.456 13.7459 104.954 14.1326 105.334 14.6175C105.727 15.1025 106.009 15.6661 106.179 16.3083C106.363 16.9375 106.455 17.5994 106.455 18.294V19.1591H99.8289V19.3164C99.8289 19.998 100.012 20.5419 100.379 20.9482C100.746 21.3414 101.323 21.538 102.11 21.538C102.713 21.538 103.204 21.4201 103.584 21.1842C103.964 20.9351 104.318 20.6402 104.646 20.2994L106.101 22.1082C105.642 22.6456 105.039 23.065 104.292 23.3665C103.558 23.6679 102.719 23.8187 101.775 23.8187ZM101.716 15.168C101.127 15.168 100.661 15.3646 100.32 15.7578C99.9928 16.1379 99.8289 16.6491 99.8289 17.2914V17.4486H103.447V17.2717C103.447 16.6426 103.302 16.1379 103.014 15.7578C102.739 15.3646 102.306 15.168 101.716 15.168Z" fill="white"/>
<path d="M112.984 23.5827V9.85965H114.163V22.5604H120.887V23.5827H112.984Z" fill="white"/>
<path d="M134.553 23.5827C134.095 23.5827 133.767 23.4713 133.57 23.2485C133.374 23.0257 133.262 22.7242 133.236 22.3441V21.9902H133.138C132.915 22.5276 132.548 22.9667 132.037 23.3075C131.526 23.6483 130.831 23.8187 129.953 23.8187C128.891 23.8187 128.052 23.5631 127.436 23.0519C126.833 22.5276 126.532 21.7936 126.532 20.8499C126.532 20.4043 126.604 20.0045 126.748 19.6506C126.906 19.2836 127.148 18.9756 127.476 18.7266C127.816 18.4775 128.249 18.2875 128.773 18.1564C129.298 18.0122 129.94 17.9402 130.7 17.9402H133.177V16.7015C133.177 15.8496 132.941 15.2139 132.469 14.7945C132.011 14.375 131.368 14.1653 130.543 14.1653C129.153 14.1653 128.183 14.7224 127.633 15.8365L126.866 15.286C127.128 14.6962 127.567 14.2046 128.183 13.8114C128.813 13.4051 129.619 13.202 130.602 13.202C131.755 13.202 132.66 13.5034 133.315 14.1063C133.97 14.6962 134.298 15.5219 134.298 16.5836V22.5997H135.812V23.5827H134.553ZM130.13 22.875C130.562 22.875 130.962 22.8225 131.329 22.7177C131.696 22.6128 132.017 22.4686 132.293 22.2851C132.568 22.0885 132.784 21.8526 132.941 21.5774C133.099 21.3021 133.177 20.9941 133.177 20.6533V18.7856H130.7C129.638 18.7856 128.872 18.9494 128.4 19.2771C127.941 19.5916 127.712 20.0242 127.712 20.5747V21.0858C127.712 21.6757 127.928 22.1213 128.36 22.4228C128.806 22.7242 129.396 22.875 130.13 22.875Z" fill="white"/>
<path d="M141.948 9.03391H143.069V15.05H143.128C143.416 14.4996 143.816 14.0539 144.327 13.7131C144.851 13.3723 145.5 13.202 146.273 13.202C147.545 13.202 148.534 13.6607 149.242 14.5782C149.95 15.4826 150.304 16.7933 150.304 18.5103C150.304 20.2273 149.95 21.5446 149.242 22.4621C148.534 23.3665 147.545 23.8187 146.273 23.8187C145.5 23.8187 144.851 23.6483 144.327 23.3075C143.816 22.9667 143.416 22.5211 143.128 21.9706H143.069V23.5827H141.948V9.03391ZM145.9 22.816C146.922 22.816 147.709 22.4949 148.259 21.8526C148.823 21.2104 149.104 20.3322 149.104 19.2181V17.8025C149.104 16.6884 148.823 15.8103 148.259 15.168C147.709 14.5258 146.922 14.2046 145.9 14.2046C145.52 14.2046 145.159 14.2571 144.818 14.3619C144.478 14.4668 144.176 14.6175 143.914 14.8141C143.652 15.0107 143.442 15.2532 143.285 15.5416C143.141 15.8299 143.069 16.151 143.069 16.5049V20.5157C143.069 20.8696 143.141 21.1907 143.285 21.4791C143.442 21.7674 143.652 22.0099 143.914 22.2065C144.176 22.4031 144.478 22.5538 144.818 22.6587C145.159 22.7636 145.52 22.816 145.9 22.816Z" fill="white"/>
<path d="M160.667 23.8187C159.645 23.8187 158.753 23.6483 157.993 23.3075C157.246 22.9536 156.597 22.4621 156.047 21.833L156.814 21.1645C157.312 21.7412 157.869 22.1737 158.485 22.4621C159.101 22.7373 159.835 22.875 160.687 22.875C161.578 22.875 162.299 22.7046 162.849 22.3638C163.413 22.023 163.695 21.4987 163.695 20.7909C163.695 20.4764 163.636 20.2208 163.518 20.0242C163.413 19.8145 163.262 19.6441 163.066 19.513C162.869 19.3819 162.64 19.2836 162.378 19.2181C162.115 19.1395 161.827 19.0805 161.512 19.0411L159.94 18.8249C159.546 18.7725 159.147 18.7004 158.74 18.6086C158.347 18.5038 157.987 18.353 157.659 18.1564C157.344 17.9598 157.082 17.6977 156.873 17.37C156.676 17.0423 156.578 16.6229 156.578 16.1117C156.578 15.6137 156.676 15.1811 156.873 14.8141C157.069 14.4471 157.344 14.1457 157.698 13.9097C158.052 13.6738 158.465 13.4969 158.937 13.3789C159.422 13.2609 159.94 13.202 160.49 13.202C161.434 13.202 162.227 13.3592 162.869 13.6738C163.524 13.9753 164.075 14.3554 164.521 14.8141L163.773 15.5219C163.629 15.3646 163.459 15.2073 163.262 15.05C163.079 14.8797 162.849 14.7289 162.574 14.5979C162.312 14.4668 162.004 14.3619 161.65 14.2833C161.296 14.1915 160.89 14.1457 160.431 14.1457C159.566 14.1457 158.891 14.3029 158.406 14.6175C157.934 14.9321 157.698 15.4039 157.698 16.0331C157.698 16.3476 157.751 16.6098 157.856 16.8195C157.974 17.0161 158.131 17.1799 158.327 17.311C158.524 17.4421 158.753 17.5469 159.016 17.6256C159.278 17.6911 159.56 17.7435 159.861 17.7829L161.454 18.0188C161.847 18.0843 162.24 18.1695 162.633 18.2744C163.039 18.3661 163.4 18.5103 163.714 18.7069C164.042 18.9035 164.304 19.1657 164.501 19.4933C164.697 19.8079 164.796 20.2208 164.796 20.732C164.796 21.2431 164.691 21.6888 164.481 22.0689C164.285 22.449 164.003 22.7701 163.636 23.0323C163.282 23.2944 162.849 23.491 162.338 23.6221C161.827 23.7531 161.27 23.8187 160.667 23.8187Z" fill="white"/>
<path fill-rule="evenodd" clip-rule="evenodd" d="M15.2169 12.6779L11.8948 16L15.2169 19.3221L18.539 16L15.2169 12.6779ZM13.7552 16L15.2169 17.4617L16.6786 16L15.2169 14.5383L13.7552 16Z" fill="white"/>
<path fill-rule="evenodd" clip-rule="evenodd" d="M15.2169 8.63426L21.5958 12.3171V19.6829L15.2169 23.3657L8.83799 19.6829V12.3171L15.2169 8.63426ZM20.2803 13.0766L15.2169 10.1533L10.1535 13.0766V18.9234L15.2169 21.8467L20.2803 18.9234V13.0766Z" fill="white"/>
<path fill-rule="evenodd" clip-rule="evenodd" d="M15.2169 4.34435L6.97511 7.75821L3.56125 16L6.97511 24.2418L15.2169 27.6557L23.4587 24.2418L26.8726 16L23.4587 7.75821L15.2169 4.34435ZM15.2169 5.76825L22.4518 8.76506L25.4487 16L22.4518 23.2349L15.2169 26.2318L7.98196 23.2349L4.98515 16L7.98196 8.76506L15.2169 5.76825Z" fill="white"/>
<path fill-rule="evenodd" clip-rule="evenodd" d="M15.2169 0L5.81234 3.05573L0 11.0557V20.9443L5.81234 28.9443L15.2169 32L24.6215 28.9443L30.4338 20.9443V11.0557L24.6215 3.05573L15.2169 0ZM15.2169 1.38321L23.8084 4.17477L29.1183 11.4832V20.5168L23.8084 27.8252L15.2169 30.6168L6.62537 27.8252L1.31551 20.5168V11.4832L6.62537 4.17477L15.2169 1.38321Z" fill="white"/>
</svg>
