<svg width="170" height="170" viewBox="0 0 170 170" fill="none" xmlns="http://www.w3.org/2000/svg">
<g clip-path="url(#clip0_3_131)">
<rect width="170" height="170" fill="#F5F5F5"/>
<mask id="mask0_3_131" style="mask-type:luminance" maskUnits="userSpaceOnUse" x="9" y="9" width="154" height="154">
<path d="M13.9453 74.375H9.29688V79.0234H13.9453V74.375Z" fill="white"/>
<path d="M13.9453 79.0234H9.29688V83.6719H13.9453V79.0234Z" fill="white"/>
<path d="M13.9453 83.6719H9.29688V88.3203H13.9453V83.6719Z" fill="white"/>
<path d="M13.9453 102.266H9.29688V106.914H13.9453V102.266Z" fill="white"/>
<path d="M13.9453 106.914H9.29688V111.562H13.9453V106.914Z" fill="white"/>
<path d="M13.9453 120.859H9.29688V125.508H13.9453V120.859Z" fill="white"/>
<path d="M18.5938 46.4844H13.9453V51.1328H18.5938V46.4844Z" fill="white"/>
<path d="M18.5938 51.1328H13.9453V55.7812H18.5938V51.1328Z" fill="white"/>
<path d="M18.5938 74.375H13.9453V79.0234H18.5938V74.375Z" fill="white"/>
<path d="M18.5938 79.0234H13.9453V83.6719H18.5938V79.0234Z" fill="white"/>
<path d="M18.5938 83.6719H13.9453V88.3203H18.5938V83.6719Z" fill="white"/>
<path d="M18.5938 88.3203H13.9453V92.9688H18.5938V88.3203Z" fill="white"/>
<path d="M18.5938 97.6172H13.9453V102.266H18.5938V97.6172Z" fill="white"/>
<path d="M18.5938 102.266H13.9453V106.914H18.5938V102.266Z" fill="white"/>
<path d="M18.5938 111.562H13.9453V116.211H18.5938V111.562Z" fill="white"/>
<path d="M18.5938 120.859H13.9453V125.508H18.5938V120.859Z" fill="white"/>
<path d="M23.2422 51.1328H18.5938V55.7812H23.2422V51.1328Z" fill="white"/>
<path d="M23.2422 60.4297H18.5938V65.0781H23.2422V60.4297Z" fill="white"/>
<path d="M23.2422 65.0781H18.5938V69.7266H23.2422V65.0781Z" fill="white"/>
<path d="M23.2422 69.7266H18.5938V74.375H23.2422V69.7266Z" fill="white"/>
<path d="M23.2422 79.0234H18.5938V83.6719H23.2422V79.0234Z" fill="white"/>
<path d="M23.2422 83.6719H18.5938V88.3203H23.2422V83.6719Z" fill="white"/>
<path d="M23.2422 88.3203H18.5938V92.9688H23.2422V88.3203Z" fill="white"/>
<path d="M23.2422 92.9688H18.5938V97.6172H23.2422V92.9688Z" fill="white"/>
<path d="M23.2422 102.266H18.5938V106.914H23.2422V102.266Z" fill="white"/>
<path d="M23.2422 106.914H18.5938V111.562H23.2422V106.914Z" fill="white"/>
<path d="M23.2422 116.211H18.5938V120.859H23.2422V116.211Z" fill="white"/>
<path d="M27.8906 46.4844H23.2422V51.1328H27.8906V46.4844Z" fill="white"/>
<path d="M27.8906 51.1328H23.2422V55.7812H27.8906V51.1328Z" fill="white"/>
<path d="M27.8906 60.4297H23.2422V65.0781H27.8906V60.4297Z" fill="white"/>
<path d="M27.8906 74.375H23.2422V79.0234H27.8906V74.375Z" fill="white"/>
<path d="M27.8906 83.6719H23.2422V88.3203H27.8906V83.6719Z" fill="white"/>
<path d="M27.8906 106.914H23.2422V111.562H27.8906V106.914Z" fill="white"/>
<path d="M27.8906 111.562H23.2422V116.211H27.8906V111.562Z" fill="white"/>
<path d="M27.8906 120.859H23.2422V125.508H27.8906V120.859Z" fill="white"/>
<path d="M32.5391 46.4844H27.8906V51.1328H32.5391V46.4844Z" fill="white"/>
<path d="M32.5391 55.7812H27.8906V60.4297H32.5391V55.7812Z" fill="white"/>
<path d="M32.5391 69.7266H27.8906V74.375H32.5391V69.7266Z" fill="white"/>
<path d="M32.5391 79.0234H27.8906V83.6719H32.5391V79.0234Z" fill="white"/>
<path d="M32.5391 83.6719H27.8906V88.3203H32.5391V83.6719Z" fill="white"/>
<path d="M32.5391 88.3203H27.8906V92.9688H32.5391V88.3203Z" fill="white"/>
<path d="M32.5391 92.9688H27.8906V97.6172H32.5391V92.9688Z" fill="white"/>
<path d="M32.5391 102.266H27.8906V106.914H32.5391V102.266Z" fill="white"/>
<path d="M32.5391 106.914H27.8906V111.562H32.5391V106.914Z" fill="white"/>
<path d="M32.5391 111.562H27.8906V116.211H32.5391V111.562Z" fill="white"/>
<path d="M32.5391 116.211H27.8906V120.859H32.5391V116.211Z" fill="white"/>
<path d="M37.1875 51.1328H32.5391V55.7812H37.1875V51.1328Z" fill="white"/>
<path d="M37.1875 55.7812H32.5391V60.4297H37.1875V55.7812Z" fill="white"/>
<path d="M37.1875 69.7266H32.5391V74.375H37.1875V69.7266Z" fill="white"/>
<path d="M37.1875 74.375H32.5391V79.0234H37.1875V74.375Z" fill="white"/>
<path d="M37.1875 79.0234H32.5391V83.6719H37.1875V79.0234Z" fill="white"/>
<path d="M37.1875 83.6719H32.5391V88.3203H37.1875V83.6719Z" fill="white"/>
<path d="M37.1875 88.3203H32.5391V92.9688H37.1875V88.3203Z" fill="white"/>
<path d="M37.1875 92.9688H32.5391V97.6172H37.1875V92.9688Z" fill="white"/>
<path d="M37.1875 102.266H32.5391V106.914H37.1875V102.266Z" fill="white"/>
<path d="M37.1875 106.914H32.5391V111.562H37.1875V106.914Z" fill="white"/>
<path d="M37.1875 111.562H32.5391V116.211H37.1875V111.562Z" fill="white"/>
<path d="M37.1875 116.211H32.5391V120.859H37.1875V116.211Z" fill="white"/>
<path d="M41.8359 46.4844H37.1875V51.1328H41.8359V46.4844Z" fill="white"/>
<path d="M41.8359 55.7812H37.1875V60.4297H41.8359V55.7812Z" fill="white"/>
<path d="M41.8359 65.0781H37.1875V69.7266H41.8359V65.0781Z" fill="white"/>
<path d="M41.8359 74.375H37.1875V79.0234H41.8359V74.375Z" fill="white"/>
<path d="M41.8359 83.6719H37.1875V88.3203H41.8359V83.6719Z" fill="white"/>
<path d="M41.8359 92.9688H37.1875V97.6172H41.8359V92.9688Z" fill="white"/>
<path d="M41.8359 102.266H37.1875V106.914H41.8359V102.266Z" fill="white"/>
<path d="M41.8359 111.562H37.1875V116.211H41.8359V111.562Z" fill="white"/>
<path d="M41.8359 120.859H37.1875V125.508H41.8359V120.859Z" fill="white"/>
<path d="M46.4844 46.4844H41.8359V51.1328H46.4844V46.4844Z" fill="white"/>
<path d="M46.4844 51.1328H41.8359V55.7812H46.4844V51.1328Z" fill="white"/>
<path d="M46.4844 55.7812H41.8359V60.4297H46.4844V55.7812Z" fill="white"/>
<path d="M46.4844 74.375H41.8359V79.0234H46.4844V74.375Z" fill="white"/>
<path d="M46.4844 79.0234H41.8359V83.6719H46.4844V79.0234Z" fill="white"/>
<path d="M46.4844 83.6719H41.8359V88.3203H46.4844V83.6719Z" fill="white"/>
<path d="M46.4844 97.6172H41.8359V102.266H46.4844V97.6172Z" fill="white"/>
<path d="M46.4844 102.266H41.8359V106.914H46.4844V102.266Z" fill="white"/>
<path d="M46.4844 116.211H41.8359V120.859H46.4844V116.211Z" fill="white"/>
<path d="M51.1328 13.9453H46.4844V18.5938H51.1328V13.9453Z" fill="white"/>
<path d="M51.1328 23.2422H46.4844V27.8906H51.1328V23.2422Z" fill="white"/>
<path d="M51.1328 27.8906H46.4844V32.5391H51.1328V27.8906Z" fill="white"/>
<path d="M51.1328 32.5391H46.4844V37.1875H51.1328V32.5391Z" fill="white"/>
<path d="M51.1328 37.1875H46.4844V41.8359H51.1328V37.1875Z" fill="white"/>
<path d="M51.1328 46.4844H46.4844V51.1328H51.1328V46.4844Z" fill="white"/>
<path d="M51.1328 51.1328H46.4844V55.7812H51.1328V51.1328Z" fill="white"/>
<path d="M51.1328 55.7812H46.4844V60.4297H51.1328V55.7812Z" fill="white"/>
<path d="M51.1328 65.0781H46.4844V69.7266H51.1328V65.0781Z" fill="white"/>
<path d="M51.1328 83.6719H46.4844V88.3203H51.1328V83.6719Z" fill="white"/>
<path d="M51.1328 88.3203H46.4844V92.9688H51.1328V88.3203Z" fill="white"/>
<path d="M51.1328 92.9688H46.4844V97.6172H51.1328V92.9688Z" fill="white"/>
<path d="M51.1328 97.6172H46.4844V102.266H51.1328V97.6172Z" fill="white"/>
<path d="M51.1328 102.266H46.4844V106.914H51.1328V102.266Z" fill="white"/>
<path d="M51.1328 111.562H46.4844V116.211H51.1328V111.562Z" fill="white"/>
<path d="M51.1328 125.508H46.4844V130.156H51.1328V125.508Z" fill="white"/>
<path d="M51.1328 130.156H46.4844V134.805H51.1328V130.156Z" fill="white"/>
<path d="M51.1328 139.453H46.4844V144.102H51.1328V139.453Z" fill="white"/>
<path d="M51.1328 144.102H46.4844V148.75H51.1328V144.102Z" fill="white"/>
<path d="M51.1328 153.398H46.4844V158.047H51.1328V153.398Z" fill="white"/>
<path d="M55.7812 18.5938H51.1328V23.2422H55.7812V18.5938Z" fill="white"/>
<path d="M55.7812 23.2422H51.1328V27.8906H55.7812V23.2422Z" fill="white"/>
<path d="M55.7812 27.8906H51.1328V32.5391H55.7812V27.8906Z" fill="white"/>
<path d="M55.7812 32.5391H51.1328V37.1875H55.7812V32.5391Z" fill="white"/>
<path d="M55.7812 65.0781H51.1328V69.7266H55.7812V65.0781Z" fill="white"/>
<path d="M55.7812 69.7266H51.1328V74.375H55.7812V69.7266Z" fill="white"/>
<path d="M55.7812 79.0234H51.1328V83.6719H55.7812V79.0234Z" fill="white"/>
<path d="M55.7812 97.6172H51.1328V102.266H55.7812V97.6172Z" fill="white"/>
<path d="M55.7812 102.266H51.1328V106.914H55.7812V102.266Z" fill="white"/>
<path d="M55.7812 106.914H51.1328V111.562H55.7812V106.914Z" fill="white"/>
<path d="M55.7812 116.211H51.1328V120.859H55.7812V116.211Z" fill="white"/>
<path d="M55.7812 120.859H51.1328V125.508H55.7812V120.859Z" fill="white"/>
<path d="M55.7812 125.508H51.1328V130.156H55.7812V125.508Z" fill="white"/>
<path d="M55.7812 139.453H51.1328V144.102H55.7812V139.453Z" fill="white"/>
<path d="M55.7812 158.047H51.1328V162.695H55.7812V158.047Z" fill="white"/>
<path d="M60.4297 9.29688H55.7812V13.9453H60.4297V9.29688Z" fill="white"/>
<path d="M60.4297 23.2422H55.7812V27.8906H60.4297V23.2422Z" fill="white"/>
<path d="M60.4297 27.8906H55.7812V32.5391H60.4297V27.8906Z" fill="white"/>
<path d="M60.4297 32.5391H55.7812V37.1875H60.4297V32.5391Z" fill="white"/>
<path d="M60.4297 37.1875H55.7812V41.8359H60.4297V37.1875Z" fill="white"/>
<path d="M60.4297 41.8359H55.7812V46.4844H60.4297V41.8359Z" fill="white"/>
<path d="M60.4297 46.4844H55.7812V51.1328H60.4297V46.4844Z" fill="white"/>
<path d="M60.4297 51.1328H55.7812V55.7812H60.4297V51.1328Z" fill="white"/>
<path d="M60.4297 65.0781H55.7812V69.7266H60.4297V65.0781Z" fill="white"/>
<path d="M60.4297 83.6719H55.7812V88.3203H60.4297V83.6719Z" fill="white"/>
<path d="M60.4297 88.3203H55.7812V92.9688H60.4297V88.3203Z" fill="white"/>
<path d="M60.4297 92.9688H55.7812V97.6172H60.4297V92.9688Z" fill="white"/>
<path d="M60.4297 106.914H55.7812V111.562H60.4297V106.914Z" fill="white"/>
<path d="M60.4297 116.211H55.7812V120.859H60.4297V116.211Z" fill="white"/>
<path d="M60.4297 120.859H55.7812V125.508H60.4297V120.859Z" fill="white"/>
<path d="M60.4297 139.453H55.7812V144.102H60.4297V139.453Z" fill="white"/>
<path d="M60.4297 144.102H55.7812V148.75H60.4297V144.102Z" fill="white"/>
<path d="M60.4297 148.75H55.7812V153.398H60.4297V148.75Z" fill="white"/>
<path d="M60.4297 153.398H55.7812V158.047H60.4297V153.398Z" fill="white"/>
<path d="M60.4297 158.047H55.7812V162.695H60.4297V158.047Z" fill="white"/>
<path d="M65.0781 13.9453H60.4297V18.5938H65.0781V13.9453Z" fill="white"/>
<path d="M65.0781 41.8359H60.4297V46.4844H65.0781V41.8359Z" fill="white"/>
<path d="M65.0781 55.7812H60.4297V60.4297H65.0781V55.7812Z" fill="white"/>
<path d="M65.0781 69.7266H60.4297V74.375H65.0781V69.7266Z" fill="white"/>
<path d="M65.0781 79.0234H60.4297V83.6719H65.0781V79.0234Z" fill="white"/>
<path d="M65.0781 83.6719H60.4297V88.3203H65.0781V83.6719Z" fill="white"/>
<path d="M65.0781 88.3203H60.4297V92.9688H65.0781V88.3203Z" fill="white"/>
<path d="M65.0781 97.6172H60.4297V102.266H65.0781V97.6172Z" fill="white"/>
<path d="M65.0781 111.562H60.4297V116.211H65.0781V111.562Z" fill="white"/>
<path d="M65.0781 120.859H60.4297V125.508H65.0781V120.859Z" fill="white"/>
<path d="M65.0781 139.453H60.4297V144.102H65.0781V139.453Z" fill="white"/>
<path d="M65.0781 148.75H60.4297V153.398H65.0781V148.75Z" fill="white"/>
<path d="M65.0781 153.398H60.4297V158.047H65.0781V153.398Z" fill="white"/>
<path d="M69.7266 13.9453H65.0781V18.5938H69.7266V13.9453Z" fill="white"/>
<path d="M69.7266 18.5938H65.0781V23.2422H69.7266V18.5938Z" fill="white"/>
<path d="M69.7266 23.2422H65.0781V27.8906H69.7266V23.2422Z" fill="white"/>
<path d="M69.7266 27.8906H65.0781V32.5391H69.7266V27.8906Z" fill="white"/>
<path d="M69.7266 37.1875H65.0781V41.8359H69.7266V37.1875Z" fill="white"/>
<path d="M69.7266 41.8359H65.0781V46.4844H69.7266V41.8359Z" fill="white"/>
<path d="M69.7266 51.1328H65.0781V55.7812H69.7266V51.1328Z" fill="white"/>
<path d="M69.7266 60.4297H65.0781V65.0781H69.7266V60.4297Z" fill="white"/>
<path d="M69.7266 65.0781H65.0781V69.7266H69.7266V65.0781Z" fill="white"/>
<path d="M69.7266 69.7266H65.0781V74.375H69.7266V69.7266Z" fill="white"/>
<path d="M69.7266 74.375H65.0781V79.0234H69.7266V74.375Z" fill="white"/>
<path d="M69.7266 88.3203H65.0781V92.9688H69.7266V88.3203Z" fill="white"/>
<path d="M69.7266 92.9688H65.0781V97.6172H69.7266V92.9688Z" fill="white"/>
<path d="M69.7266 97.6172H65.0781V102.266H69.7266V97.6172Z" fill="white"/>
<path d="M69.7266 102.266H65.0781V106.914H69.7266V102.266Z" fill="white"/>
<path d="M69.7266 116.211H65.0781V120.859H69.7266V116.211Z" fill="white"/>
<path d="M69.7266 125.508H65.0781V130.156H69.7266V125.508Z" fill="white"/>
<path d="M69.7266 130.156H65.0781V134.805H69.7266V130.156Z" fill="white"/>
<path d="M69.7266 144.102H65.0781V148.75H69.7266V144.102Z" fill="white"/>
<path d="M69.7266 148.75H65.0781V153.398H69.7266V148.75Z" fill="white"/>
<path d="M69.7266 153.398H65.0781V158.047H69.7266V153.398Z" fill="white"/>
<path d="M69.7266 158.047H65.0781V162.695H69.7266V158.047Z" fill="white"/>
<path d="M74.375 18.5938H69.7266V23.2422H74.375V18.5938Z" fill="white"/>
<path d="M74.375 23.2422H69.7266V27.8906H74.375V23.2422Z" fill="white"/>
<path d="M74.375 32.5391H69.7266V37.1875H74.375V32.5391Z" fill="white"/>
<path d="M74.375 46.4844H69.7266V51.1328H74.375V46.4844Z" fill="white"/>
<path d="M74.375 55.7812H69.7266V60.4297H74.375V55.7812Z" fill="white"/>
<path d="M74.375 79.0234H69.7266V83.6719H74.375V79.0234Z" fill="white"/>
<path d="M74.375 88.3203H69.7266V92.9688H74.375V88.3203Z" fill="white"/>
<path d="M74.375 97.6172H69.7266V102.266H74.375V97.6172Z" fill="white"/>
<path d="M74.375 116.211H69.7266V120.859H74.375V116.211Z" fill="white"/>
<path d="M74.375 120.859H69.7266V125.508H74.375V120.859Z" fill="white"/>
<path d="M74.375 144.102H69.7266V148.75H74.375V144.102Z" fill="white"/>
<path d="M74.375 148.75H69.7266V153.398H74.375V148.75Z" fill="white"/>
<path d="M79.0234 18.5938H74.375V23.2422H79.0234V18.5938Z" fill="white"/>
<path d="M79.0234 23.2422H74.375V27.8906H79.0234V23.2422Z" fill="white"/>
<path d="M79.0234 32.5391H74.375V37.1875H79.0234V32.5391Z" fill="white"/>
<path d="M79.0234 37.1875H74.375V41.8359H79.0234V37.1875Z" fill="white"/>
<path d="M79.0234 60.4297H74.375V65.0781H79.0234V60.4297Z" fill="white"/>
<path d="M79.0234 65.0781H74.375V69.7266H79.0234V65.0781Z" fill="white"/>
<path d="M79.0234 69.7266H74.375V74.375H79.0234V69.7266Z" fill="white"/>
<path d="M79.0234 74.375H74.375V79.0234H79.0234V74.375Z" fill="white"/>
<path d="M79.0234 92.9688H74.375V97.6172H79.0234V92.9688Z" fill="white"/>
<path d="M79.0234 120.859H74.375V125.508H79.0234V120.859Z" fill="white"/>
<path d="M79.0234 139.453H74.375V144.102H79.0234V139.453Z" fill="white"/>
<path d="M79.0234 144.102H74.375V148.75H79.0234V144.102Z" fill="white"/>
<path d="M79.0234 148.75H74.375V153.398H79.0234V148.75Z" fill="white"/>
<path d="M83.6719 9.29688H79.0234V13.9453H83.6719V9.29688Z" fill="white"/>
<path d="M83.6719 13.9453H79.0234V18.5938H83.6719V13.9453Z" fill="white"/>
<path d="M83.6719 18.5938H79.0234V23.2422H83.6719V18.5938Z" fill="white"/>
<path d="M83.6719 23.2422H79.0234V27.8906H83.6719V23.2422Z" fill="white"/>
<path d="M83.6719 46.4844H79.0234V51.1328H83.6719V46.4844Z" fill="white"/>
<path d="M83.6719 51.1328H79.0234V55.7812H83.6719V51.1328Z" fill="white"/>
<path d="M83.6719 88.3203H79.0234V92.9688H83.6719V88.3203Z" fill="white"/>
<path d="M83.6719 97.6172H79.0234V102.266H83.6719V97.6172Z" fill="white"/>
<path d="M83.6719 111.562H79.0234V116.211H83.6719V111.562Z" fill="white"/>
<path d="M83.6719 116.211H79.0234V120.859H83.6719V116.211Z" fill="white"/>
<path d="M83.6719 120.859H79.0234V125.508H83.6719V120.859Z" fill="white"/>
<path d="M83.6719 125.508H79.0234V130.156H83.6719V125.508Z" fill="white"/>
<path d="M83.6719 130.156H79.0234V134.805H83.6719V130.156Z" fill="white"/>
<path d="M83.6719 139.453H79.0234V144.102H83.6719V139.453Z" fill="white"/>
<path d="M83.6719 148.75H79.0234V153.398H83.6719V148.75Z" fill="white"/>
<path d="M83.6719 158.047H79.0234V162.695H83.6719V158.047Z" fill="white"/>
<path d="M88.3203 9.29688H83.6719V13.9453H88.3203V9.29688Z" fill="white"/>
<path d="M88.3203 13.9453H83.6719V18.5938H88.3203V13.9453Z" fill="white"/>
<path d="M88.3203 18.5938H83.6719V23.2422H88.3203V18.5938Z" fill="white"/>
<path d="M88.3203 27.8906H83.6719V32.5391H88.3203V27.8906Z" fill="white"/>
<path d="M88.3203 32.5391H83.6719V37.1875H88.3203V32.5391Z" fill="white"/>
<path d="M88.3203 37.1875H83.6719V41.8359H88.3203V37.1875Z" fill="white"/>
<path d="M88.3203 55.7812H83.6719V60.4297H88.3203V55.7812Z" fill="white"/>
<path d="M88.3203 60.4297H83.6719V65.0781H88.3203V60.4297Z" fill="white"/>
<path d="M88.3203 65.0781H83.6719V69.7266H88.3203V65.0781Z" fill="white"/>
<path d="M88.3203 69.7266H83.6719V74.375H88.3203V69.7266Z" fill="white"/>
<path d="M88.3203 83.6719H83.6719V88.3203H88.3203V83.6719Z" fill="white"/>
<path d="M88.3203 92.9688H83.6719V97.6172H88.3203V92.9688Z" fill="white"/>
<path d="M88.3203 97.6172H83.6719V102.266H88.3203V97.6172Z" fill="white"/>
<path d="M88.3203 102.266H83.6719V106.914H88.3203V102.266Z" fill="white"/>
<path d="M88.3203 116.211H83.6719V120.859H88.3203V116.211Z" fill="white"/>
<path d="M88.3203 125.508H83.6719V130.156H88.3203V125.508Z" fill="white"/>
<path d="M88.3203 130.156H83.6719V134.805H88.3203V130.156Z" fill="white"/>
<path d="M88.3203 139.453H83.6719V144.102H88.3203V139.453Z" fill="white"/>
<path d="M88.3203 158.047H83.6719V162.695H88.3203V158.047Z" fill="white"/>
<path d="M92.9688 9.29688H88.3203V13.9453H92.9688V9.29688Z" fill="white"/>
<path d="M92.9688 32.5391H88.3203V37.1875H92.9688V32.5391Z" fill="white"/>
<path d="M92.9688 51.1328H88.3203V55.7812H92.9688V51.1328Z" fill="white"/>
<path d="M92.9688 55.7812H88.3203V60.4297H92.9688V55.7812Z" fill="white"/>
<path d="M92.9688 65.0781H88.3203V69.7266H92.9688V65.0781Z" fill="white"/>
<path d="M92.9688 69.7266H88.3203V74.375H92.9688V69.7266Z" fill="white"/>
<path d="M92.9688 83.6719H88.3203V88.3203H92.9688V83.6719Z" fill="white"/>
<path d="M92.9688 92.9688H88.3203V97.6172H92.9688V92.9688Z" fill="white"/>
<path d="M92.9688 97.6172H88.3203V102.266H92.9688V97.6172Z" fill="white"/>
<path d="M92.9688 102.266H88.3203V106.914H92.9688V102.266Z" fill="white"/>
<path d="M92.9688 120.859H88.3203V125.508H92.9688V120.859Z" fill="white"/>
<path d="M92.9688 130.156H88.3203V134.805H92.9688V130.156Z" fill="white"/>
<path d="M92.9688 139.453H88.3203V144.102H92.9688V139.453Z" fill="white"/>
<path d="M92.9688 148.75H88.3203V153.398H92.9688V148.75Z" fill="white"/>
<path d="M97.6172 37.1875H92.9688V41.8359H97.6172V37.1875Z" fill="white"/>
<path d="M97.6172 41.8359H92.9688V46.4844H97.6172V41.8359Z" fill="white"/>
<path d="M97.6172 51.1328H92.9688V55.7812H97.6172V51.1328Z" fill="white"/>
<path d="M97.6172 55.7812H92.9688V60.4297H97.6172V55.7812Z" fill="white"/>
<path d="M97.6172 60.4297H92.9688V65.0781H97.6172V60.4297Z" fill="white"/>
<path d="M97.6172 65.0781H92.9688V69.7266H97.6172V65.0781Z" fill="white"/>
<path d="M97.6172 83.6719H92.9688V88.3203H97.6172V83.6719Z" fill="white"/>
<path d="M97.6172 97.6172H92.9688V102.266H97.6172V97.6172Z" fill="white"/>
<path d="M97.6172 102.266H92.9688V106.914H97.6172V102.266Z" fill="white"/>
<path d="M97.6172 111.562H92.9688V116.211H97.6172V111.562Z" fill="white"/>
<path d="M97.6172 116.211H92.9688V120.859H97.6172V116.211Z" fill="white"/>
<path d="M97.6172 130.156H92.9688V134.805H97.6172V130.156Z" fill="white"/>
<path d="M97.6172 148.75H92.9688V153.398H97.6172V148.75Z" fill="white"/>
<path d="M97.6172 158.047H92.9688V162.695H97.6172V158.047Z" fill="white"/>
<path d="M102.266 41.8359H97.6172V46.4844H102.266V41.8359Z" fill="white"/>
<path d="M102.266 46.4844H97.6172V51.1328H102.266V46.4844Z" fill="white"/>
<path d="M102.266 51.1328H97.6172V55.7812H102.266V51.1328Z" fill="white"/>
<path d="M102.266 65.0781H97.6172V69.7266H102.266V65.0781Z" fill="white"/>
<path d="M102.266 69.7266H97.6172V74.375H102.266V69.7266Z" fill="white"/>
<path d="M102.266 74.375H97.6172V79.0234H102.266V74.375Z" fill="white"/>
<path d="M102.266 79.0234H97.6172V83.6719H102.266V79.0234Z" fill="white"/>
<path d="M102.266 92.9688H97.6172V97.6172H102.266V92.9688Z" fill="white"/>
<path d="M102.266 111.562H97.6172V116.211H102.266V111.562Z" fill="white"/>
<path d="M102.266 120.859H97.6172V125.508H102.266V120.859Z" fill="white"/>
<path d="M102.266 125.508H97.6172V130.156H102.266V125.508Z" fill="white"/>
<path d="M102.266 130.156H97.6172V134.805H102.266V130.156Z" fill="white"/>
<path d="M102.266 134.805H97.6172V139.453H102.266V134.805Z" fill="white"/>
<path d="M102.266 144.102H97.6172V148.75H102.266V144.102Z" fill="white"/>
<path d="M102.266 148.75H97.6172V153.398H102.266V148.75Z" fill="white"/>
<path d="M102.266 158.047H97.6172V162.695H102.266V158.047Z" fill="white"/>
<path d="M106.914 18.5938H102.266V23.2422H106.914V18.5938Z" fill="white"/>
<path d="M106.914 23.2422H102.266V27.8906H106.914V23.2422Z" fill="white"/>
<path d="M106.914 27.8906H102.266V32.5391H106.914V27.8906Z" fill="white"/>
<path d="M106.914 32.5391H102.266V37.1875H106.914V32.5391Z" fill="white"/>
<path d="M106.914 37.1875H102.266V41.8359H106.914V37.1875Z" fill="white"/>
<path d="M106.914 41.8359H102.266V46.4844H106.914V41.8359Z" fill="white"/>
<path d="M106.914 46.4844H102.266V51.1328H106.914V46.4844Z" fill="white"/>
<path d="M106.914 55.7812H102.266V60.4297H106.914V55.7812Z" fill="white"/>
<path d="M106.914 65.0781H102.266V69.7266H106.914V65.0781Z" fill="white"/>
<path d="M106.914 69.7266H102.266V74.375H106.914V69.7266Z" fill="white"/>
<path d="M106.914 79.0234H102.266V83.6719H106.914V79.0234Z" fill="white"/>
<path d="M106.914 88.3203H102.266V92.9688H106.914V88.3203Z" fill="white"/>
<path d="M106.914 92.9688H102.266V97.6172H106.914V92.9688Z" fill="white"/>
<path d="M106.914 97.6172H102.266V102.266H106.914V97.6172Z" fill="white"/>
<path d="M106.914 111.562H102.266V116.211H106.914V111.562Z" fill="white"/>
<path d="M106.914 125.508H102.266V130.156H106.914V125.508Z" fill="white"/>
<path d="M106.914 134.805H102.266V139.453H106.914V134.805Z" fill="white"/>
<path d="M106.914 148.75H102.266V153.398H106.914V148.75Z" fill="white"/>
<path d="M106.914 153.398H102.266V158.047H106.914V153.398Z" fill="white"/>
<path d="M111.562 9.29688H106.914V13.9453H111.562V9.29688Z" fill="white"/>
<path d="M111.562 27.8906H106.914V32.5391H111.562V27.8906Z" fill="white"/>
<path d="M111.562 55.7812H106.914V60.4297H111.562V55.7812Z" fill="white"/>
<path d="M111.562 69.7266H106.914V74.375H111.562V69.7266Z" fill="white"/>
<path d="M111.562 79.0234H106.914V83.6719H111.562V79.0234Z" fill="white"/>
<path d="M111.562 88.3203H106.914V92.9688H111.562V88.3203Z" fill="white"/>
<path d="M111.562 102.266H106.914V106.914H111.562V102.266Z" fill="white"/>
<path d="M111.562 106.914H106.914V111.562H111.562V106.914Z" fill="white"/>
<path d="M111.562 116.211H106.914V120.859H111.562V116.211Z" fill="white"/>
<path d="M111.562 120.859H106.914V125.508H111.562V120.859Z" fill="white"/>
<path d="M111.562 125.508H106.914V130.156H111.562V125.508Z" fill="white"/>
<path d="M111.562 134.805H106.914V139.453H111.562V134.805Z" fill="white"/>
<path d="M111.562 139.453H106.914V144.102H111.562V139.453Z" fill="white"/>
<path d="M111.562 144.102H106.914V148.75H111.562V144.102Z" fill="white"/>
<path d="M111.562 148.75H106.914V153.398H111.562V148.75Z" fill="white"/>
<path d="M111.562 153.398H106.914V158.047H111.562V153.398Z" fill="white"/>
<path d="M116.211 9.29688H111.562V13.9453H116.211V9.29688Z" fill="white"/>
<path d="M116.211 18.5938H111.562V23.2422H116.211V18.5938Z" fill="white"/>
<path d="M116.211 32.5391H111.562V37.1875H116.211V32.5391Z" fill="white"/>
<path d="M116.211 37.1875H111.562V41.8359H116.211V37.1875Z" fill="white"/>
<path d="M116.211 46.4844H111.562V51.1328H116.211V46.4844Z" fill="white"/>
<path d="M116.211 55.7812H111.562V60.4297H116.211V55.7812Z" fill="white"/>
<path d="M116.211 60.4297H111.562V65.0781H116.211V60.4297Z" fill="white"/>
<path d="M116.211 79.0234H111.562V83.6719H116.211V79.0234Z" fill="white"/>
<path d="M116.211 88.3203H111.562V92.9688H116.211V88.3203Z" fill="white"/>
<path d="M116.211 106.914H111.562V111.562H116.211V106.914Z" fill="white"/>
<path d="M116.211 116.211H111.562V120.859H116.211V116.211Z" fill="white"/>
<path d="M116.211 125.508H111.562V130.156H116.211V125.508Z" fill="white"/>
<path d="M116.211 130.156H111.562V134.805H116.211V130.156Z" fill="white"/>
<path d="M116.211 134.805H111.562V139.453H116.211V134.805Z" fill="white"/>
<path d="M116.211 158.047H111.562V162.695H116.211V158.047Z" fill="white"/>
<path d="M120.859 9.29688H116.211V13.9453H120.859V9.29688Z" fill="white"/>
<path d="M120.859 18.5938H116.211V23.2422H120.859V18.5938Z" fill="white"/>
<path d="M120.859 27.8906H116.211V32.5391H120.859V27.8906Z" fill="white"/>
<path d="M120.859 46.4844H116.211V51.1328H120.859V46.4844Z" fill="white"/>
<path d="M120.859 55.7812H116.211V60.4297H120.859V55.7812Z" fill="white"/>
<path d="M120.859 60.4297H116.211V65.0781H120.859V60.4297Z" fill="white"/>
<path d="M120.859 65.0781H116.211V69.7266H120.859V65.0781Z" fill="white"/>
<path d="M120.859 69.7266H116.211V74.375H120.859V69.7266Z" fill="white"/>
<path d="M120.859 79.0234H116.211V83.6719H120.859V79.0234Z" fill="white"/>
<path d="M120.859 88.3203H116.211V92.9688H120.859V88.3203Z" fill="white"/>
<path d="M120.859 102.266H116.211V106.914H120.859V102.266Z" fill="white"/>
<path d="M120.859 111.562H116.211V116.211H120.859V111.562Z" fill="white"/>
<path d="M120.859 116.211H116.211V120.859H120.859V116.211Z" fill="white"/>
<path d="M120.859 120.859H116.211V125.508H120.859V120.859Z" fill="white"/>
<path d="M120.859 125.508H116.211V130.156H120.859V125.508Z" fill="white"/>
<path d="M120.859 139.453H116.211V144.102H120.859V139.453Z" fill="white"/>
<path d="M120.859 144.102H116.211V148.75H120.859V144.102Z" fill="white"/>
<path d="M120.859 148.75H116.211V153.398H120.859V148.75Z" fill="white"/>
<path d="M120.859 158.047H116.211V162.695H120.859V158.047Z" fill="white"/>
<path d="M125.508 9.29688H120.859V13.9453H125.508V9.29688Z" fill="white"/>
<path d="M125.508 13.9453H120.859V18.5938H125.508V13.9453Z" fill="white"/>
<path d="M125.508 23.2422H120.859V27.8906H125.508V23.2422Z" fill="white"/>
<path d="M125.508 32.5391H120.859V37.1875H125.508V32.5391Z" fill="white"/>
<path d="M125.508 37.1875H120.859V41.8359H125.508V37.1875Z" fill="white"/>
<path d="M125.508 46.4844H120.859V51.1328H125.508V46.4844Z" fill="white"/>
<path d="M125.508 55.7812H120.859V60.4297H125.508V55.7812Z" fill="white"/>
<path d="M125.508 65.0781H120.859V69.7266H125.508V65.0781Z" fill="white"/>
<path d="M125.508 74.375H120.859V79.0234H125.508V74.375Z" fill="white"/>
<path d="M125.508 79.0234H120.859V83.6719H125.508V79.0234Z" fill="white"/>
<path d="M125.508 88.3203H120.859V92.9688H125.508V88.3203Z" fill="white"/>
<path d="M125.508 92.9688H120.859V97.6172H125.508V92.9688Z" fill="white"/>
<path d="M125.508 97.6172H120.859V102.266H125.508V97.6172Z" fill="white"/>
<path d="M125.508 102.266H120.859V106.914H125.508V102.266Z" fill="white"/>
<path d="M125.508 116.211H120.859V120.859H125.508V116.211Z" fill="white"/>
<path d="M125.508 120.859H120.859V125.508H125.508V120.859Z" fill="white"/>
<path d="M125.508 125.508H120.859V130.156H125.508V125.508Z" fill="white"/>
<path d="M125.508 130.156H120.859V134.805H125.508V130.156Z" fill="white"/>
<path d="M125.508 134.805H120.859V139.453H125.508V134.805Z" fill="white"/>
<path d="M125.508 139.453H120.859V144.102H125.508V139.453Z" fill="white"/>
<path d="M125.508 153.398H120.859V158.047H125.508V153.398Z" fill="white"/>
<path d="M130.156 46.4844H125.508V51.1328H130.156V46.4844Z" fill="white"/>
<path d="M130.156 60.4297H125.508V65.0781H130.156V60.4297Z" fill="white"/>
<path d="M130.156 65.0781H125.508V69.7266H130.156V65.0781Z" fill="white"/>
<path d="M130.156 74.375H125.508V79.0234H130.156V74.375Z" fill="white"/>
<path d="M130.156 83.6719H125.508V88.3203H130.156V83.6719Z" fill="white"/>
<path d="M130.156 92.9688H125.508V97.6172H130.156V92.9688Z" fill="white"/>
<path d="M130.156 116.211H125.508V120.859H130.156V116.211Z" fill="white"/>
<path d="M130.156 120.859H125.508V125.508H130.156V120.859Z" fill="white"/>
<path d="M130.156 139.453H125.508V144.102H130.156V139.453Z" fill="white"/>
<path d="M130.156 144.102H125.508V148.75H130.156V144.102Z" fill="white"/>
<path d="M130.156 148.75H125.508V153.398H130.156V148.75Z" fill="white"/>
<path d="M130.156 153.398H125.508V158.047H130.156V153.398Z" fill="white"/>
<path d="M134.805 60.4297H130.156V65.0781H134.805V60.4297Z" fill="white"/>
<path d="M134.805 79.0234H130.156V83.6719H134.805V79.0234Z" fill="white"/>
<path d="M134.805 97.6172H130.156V102.266H134.805V97.6172Z" fill="white"/>
<path d="M134.805 106.914H130.156V111.562H134.805V106.914Z" fill="white"/>
<path d="M134.805 111.562H130.156V116.211H134.805V111.562Z" fill="white"/>
<path d="M134.805 116.211H130.156V120.859H134.805V116.211Z" fill="white"/>
<path d="M134.805 120.859H130.156V125.508H134.805V120.859Z" fill="white"/>
<path d="M134.805 130.156H130.156V134.805H134.805V130.156Z" fill="white"/>
<path d="M134.805 139.453H130.156V144.102H134.805V139.453Z" fill="white"/>
<path d="M134.805 144.102H130.156V148.75H134.805V144.102Z" fill="white"/>
<path d="M134.805 148.75H130.156V153.398H134.805V148.75Z" fill="white"/>
<path d="M139.453 46.4844H134.805V51.1328H139.453V46.4844Z" fill="white"/>
<path d="M139.453 60.4297H134.805V65.0781H139.453V60.4297Z" fill="white"/>
<path d="M139.453 69.7266H134.805V74.375H139.453V69.7266Z" fill="white"/>
<path d="M139.453 74.375H134.805V79.0234H139.453V74.375Z" fill="white"/>
<path d="M139.453 83.6719H134.805V88.3203H139.453V83.6719Z" fill="white"/>
<path d="M139.453 88.3203H134.805V92.9688H139.453V88.3203Z" fill="white"/>
<path d="M139.453 111.562H134.805V116.211H139.453V111.562Z" fill="white"/>
<path d="M139.453 120.859H134.805V125.508H139.453V120.859Z" fill="white"/>
<path d="M139.453 139.453H134.805V144.102H139.453V139.453Z" fill="white"/>
<path d="M139.453 148.75H134.805V153.398H139.453V148.75Z" fill="white"/>
<path d="M139.453 158.047H134.805V162.695H139.453V158.047Z" fill="white"/>
<path d="M144.102 46.4844H139.453V51.1328H144.102V46.4844Z" fill="white"/>
<path d="M144.102 55.7812H139.453V60.4297H144.102V55.7812Z" fill="white"/>
<path d="M144.102 60.4297H139.453V65.0781H144.102V60.4297Z" fill="white"/>
<path d="M144.102 65.0781H139.453V69.7266H144.102V65.0781Z" fill="white"/>
<path d="M144.102 74.375H139.453V79.0234H144.102V74.375Z" fill="white"/>
<path d="M144.102 79.0234H139.453V83.6719H144.102V79.0234Z" fill="white"/>
<path d="M144.102 83.6719H139.453V88.3203H144.102V83.6719Z" fill="white"/>
<path d="M144.102 88.3203H139.453V92.9688H144.102V88.3203Z" fill="white"/>
<path d="M144.102 102.266H139.453V106.914H144.102V102.266Z" fill="white"/>
<path d="M144.102 116.211H139.453V120.859H144.102V116.211Z" fill="white"/>
<path d="M144.102 120.859H139.453V125.508H144.102V120.859Z" fill="white"/>
<path d="M144.102 125.508H139.453V130.156H144.102V125.508Z" fill="white"/>
<path d="M144.102 130.156H139.453V134.805H144.102V130.156Z" fill="white"/>
<path d="M144.102 134.805H139.453V139.453H144.102V134.805Z" fill="white"/>
<path d="M144.102 139.453H139.453V144.102H144.102V139.453Z" fill="white"/>
<path d="M148.75 46.4844H144.102V51.1328H148.75V46.4844Z" fill="white"/>
<path d="M148.75 51.1328H144.102V55.7812H148.75V51.1328Z" fill="white"/>
<path d="M148.75 55.7812H144.102V60.4297H148.75V55.7812Z" fill="white"/>
<path d="M148.75 60.4297H144.102V65.0781H148.75V60.4297Z" fill="white"/>
<path d="M148.75 83.6719H144.102V88.3203H148.75V83.6719Z" fill="white"/>
<path d="M148.75 88.3203H144.102V92.9688H148.75V88.3203Z" fill="white"/>
<path d="M148.75 92.9688H144.102V97.6172H148.75V92.9688Z" fill="white"/>
<path d="M148.75 102.266H144.102V106.914H148.75V102.266Z" fill="white"/>
<path d="M148.75 116.211H144.102V120.859H148.75V116.211Z" fill="white"/>
<path d="M148.75 120.859H144.102V125.508H148.75V120.859Z" fill="white"/>
<path d="M148.75 134.805H144.102V139.453H148.75V134.805Z" fill="white"/>
<path d="M148.75 144.102H144.102V148.75H148.75V144.102Z" fill="white"/>
<path d="M148.75 148.75H144.102V153.398H148.75V148.75Z" fill="white"/>
<path d="M148.75 158.047H144.102V162.695H148.75V158.047Z" fill="white"/>
<path d="M153.398 55.7812H148.75V60.4297H153.398V55.7812Z" fill="white"/>
<path d="M153.398 60.4297H148.75V65.0781H153.398V60.4297Z" fill="white"/>
<path d="M153.398 65.0781H148.75V69.7266H153.398V65.0781Z" fill="white"/>
<path d="M153.398 69.7266H148.75V74.375H153.398V69.7266Z" fill="white"/>
<path d="M153.398 83.6719H148.75V88.3203H153.398V83.6719Z" fill="white"/>
<path d="M153.398 88.3203H148.75V92.9688H153.398V88.3203Z" fill="white"/>
<path d="M153.398 97.6172H148.75V102.266H153.398V97.6172Z" fill="white"/>
<path d="M153.398 102.266H148.75V106.914H153.398V102.266Z" fill="white"/>
<path d="M153.398 106.914H148.75V111.562H153.398V106.914Z" fill="white"/>
<path d="M153.398 116.211H148.75V120.859H153.398V116.211Z" fill="white"/>
<path d="M153.398 120.859H148.75V125.508H153.398V120.859Z" fill="white"/>
<path d="M153.398 134.805H148.75V139.453H153.398V134.805Z" fill="white"/>
<path d="M153.398 139.453H148.75V144.102H153.398V139.453Z" fill="white"/>
<path d="M153.398 153.398H148.75V158.047H153.398V153.398Z" fill="white"/>
<path d="M153.398 158.047H148.75V162.695H153.398V158.047Z" fill="white"/>
<path d="M158.047 46.4844H153.398V51.1328H158.047V46.4844Z" fill="white"/>
<path d="M158.047 51.1328H153.398V55.7812H158.047V51.1328Z" fill="white"/>
<path d="M158.047 55.7812H153.398V60.4297H158.047V55.7812Z" fill="white"/>
<path d="M158.047 60.4297H153.398V65.0781H158.047V60.4297Z" fill="white"/>
<path d="M158.047 74.375H153.398V79.0234H158.047V74.375Z" fill="white"/>
<path d="M158.047 79.0234H153.398V83.6719H158.047V79.0234Z" fill="white"/>
<path d="M158.047 83.6719H153.398V88.3203H158.047V83.6719Z" fill="white"/>
<path d="M158.047 92.9688H153.398V97.6172H158.047V92.9688Z" fill="white"/>
<path d="M158.047 97.6172H153.398V102.266H158.047V97.6172Z" fill="white"/>
<path d="M158.047 116.211H153.398V120.859H158.047V116.211Z" fill="white"/>
<path d="M158.047 130.156H153.398V134.805H158.047V130.156Z" fill="white"/>
<path d="M158.047 148.75H153.398V153.398H158.047V148.75Z" fill="white"/>
<path d="M158.047 153.398H153.398V158.047H158.047V153.398Z" fill="white"/>
<path d="M158.047 158.047H153.398V162.695H158.047V158.047Z" fill="white"/>
<path d="M162.695 51.1328H158.047V55.7812H162.695V51.1328Z" fill="white"/>
<path d="M162.695 88.3203H158.047V92.9688H162.695V88.3203Z" fill="white"/>
<path d="M162.695 97.6172H158.047V102.266H162.695V97.6172Z" fill="white"/>
<path d="M162.695 120.859H158.047V125.508H162.695V120.859Z" fill="white"/>
<path d="M162.695 130.156H158.047V134.805H162.695V130.156Z" fill="white"/>
<path d="M162.695 134.805H158.047V139.453H162.695V134.805Z" fill="white"/>
<path d="M162.695 139.453H158.047V144.102H162.695V139.453Z" fill="white"/>
<path d="M162.695 144.102H158.047V148.75H162.695V144.102Z" fill="white"/>
</mask>
<g mask="url(#mask0_3_131)">
<path d="M172.125 0H0V172.125H172.125V0Z" fill="#2D4FD2"/>
</g>
<mask id="mask1_3_131" style="mask-type:luminance" maskUnits="userSpaceOnUse" x="9" y="9" width="33" height="33">
<path fill-rule="evenodd" clip-rule="evenodd" d="M9.29688 9.29688V41.8359H41.8359V9.29688H9.29688ZM13.9453 13.9453H37.1875V37.1875H13.9453V13.9453Z" fill="white"/>
</mask>
<g mask="url(#mask1_3_131)">
<path d="M41.8359 9.29688H9.29688V41.8359H41.8359V9.29688Z" fill="#2D4FD2"/>
</g>
<mask id="mask2_3_131" style="mask-type:luminance" maskUnits="userSpaceOnUse" x="18" y="18" width="15" height="15">
<path d="M32.5391 18.5938H18.5938V32.5391H32.5391V18.5938Z" fill="white"/>
</mask>
<g mask="url(#mask2_3_131)">
<path d="M32.5391 18.5938H18.5938V32.5391H32.5391V18.5938Z" fill="#2D4FD2"/>
</g>
<mask id="mask3_3_131" style="mask-type:luminance" maskUnits="userSpaceOnUse" x="130" y="9" width="33" height="33">
<path fill-rule="evenodd" clip-rule="evenodd" d="M162.696 9.29688L130.156 9.29688V41.8359H162.696V9.29688ZM158.047 13.9453V37.1875H134.805V13.9453L158.047 13.9453Z" fill="white"/>
</mask>
<g mask="url(#mask3_3_131)">
<path d="M162.695 9.29688H130.156V41.8359H162.695V9.29688Z" fill="#2D4FD2"/>
</g>
<mask id="mask4_3_131" style="mask-type:luminance" maskUnits="userSpaceOnUse" x="139" y="18" width="15" height="15">
<path d="M153.398 32.5391V18.5938H139.453V32.5391H153.398Z" fill="white"/>
</mask>
<g mask="url(#mask4_3_131)">
<path d="M153.398 18.5938H139.453V32.5391H153.398V18.5938Z" fill="#2D4FD2"/>
</g>
<mask id="mask5_3_131" style="mask-type:luminance" maskUnits="userSpaceOnUse" x="9" y="130" width="33" height="33">
<path fill-rule="evenodd" clip-rule="evenodd" d="M9.29688 162.695H41.8359V130.156H9.29688L9.29688 162.695ZM13.9453 158.047L13.9453 134.805H37.1875V158.047H13.9453Z" fill="white"/>
</mask>
<g mask="url(#mask5_3_131)">
<path d="M41.8359 130.156H9.29688V162.695H41.8359V130.156Z" fill="#2D4FD2"/>
</g>
<mask id="mask6_3_131" style="mask-type:luminance" maskUnits="userSpaceOnUse" x="18" y="139" width="15" height="15">
<path d="M18.5938 139.453V153.398H32.5391V139.453H18.5938Z" fill="white"/>
</mask>
<g mask="url(#mask6_3_131)">
<path d="M32.5391 139.453H18.5938V153.398H32.5391V139.453Z" fill="#2D4FD2"/>
</g>
<rect width="42" height="42" transform="translate(65.0002 65)" fill="#F5F5F5"/>
<circle cx="86.0002" cy="86.5" r="15.5" fill="#2D4FD2"/>
<path fill-rule="evenodd" clip-rule="evenodd" d="M86.0259 84.3624L83.8882 86.5L86.0259 88.6377L88.1635 86.5L86.0259 84.3624ZM85.0854 86.5L86.0259 87.4405L86.9664 86.5L86.0259 85.5595L85.0854 86.5Z" fill="white"/>
<path fill-rule="evenodd" clip-rule="evenodd" d="M86.0259 81.7604L90.1305 84.1302V88.8698L86.0259 91.2396L81.9213 88.8698V84.1302L86.0259 81.7604ZM89.284 84.6189L86.0259 82.7379L82.7678 84.6189V88.3811L86.0259 90.2622L89.284 88.3811V84.6189Z" fill="white"/>
<path fill-rule="evenodd" clip-rule="evenodd" d="M86.0259 79L80.7226 81.1967L78.5259 86.5L80.7226 91.8033L86.0259 94L91.3292 91.8033L93.5259 86.5L91.3292 81.1967L86.0259 79ZM86.0259 79.9163L90.6813 81.8446L92.6096 86.5L90.6813 91.1554L86.0259 93.0838L81.3705 91.1554L79.4421 86.5L81.3705 81.8446L86.0259 79.9163Z" fill="white"/>
<path fill-rule="evenodd" clip-rule="evenodd" d="M86.0259 76.2046L79.9744 78.1709L76.2344 83.3186V89.6815L79.9744 94.8292L86.0259 96.7954L92.0774 94.8292L95.8174 89.6815V83.3186L92.0774 78.1709L86.0259 76.2046ZM86.0259 77.0946L91.5542 78.8909L94.9709 83.5936V89.4064L91.5542 94.1091L86.0259 95.9054L80.4976 94.1091L77.0809 89.4064V83.5936L80.4976 78.8909L86.0259 77.0946Z" fill="white"/>
</g>
<defs>
<clipPath id="clip0_3_131">
<rect width="170" height="170" fill="white"/>
</clipPath>
</defs>
</svg>
