<svg width="271" height="271" viewBox="0 0 271 271" fill="none" xmlns="http://www.w3.org/2000/svg">
  <circle cx="135.5" cy="135.5" r="135.5" fill="#2563eb"/>
  <path fill-rule="evenodd" clip-rule="evenodd" d="M135.5 117.052L117.052 135.5L135.5 153.948L153.948 135.5L135.5 117.052ZM127.383 135.5L135.5 143.617L143.617 135.5L135.5 127.383L127.383 135.5Z" fill="white"/>
  <path fill-rule="evenodd" clip-rule="evenodd" d="M135.5 94.5978L170.922 115.049V155.951L135.5 176.402L100.078 155.951V115.049L135.5 94.5978ZM163.617 119.267L135.5 103.033L107.383 119.267V151.734L135.5 167.967L163.617 151.734V119.267Z" fill="white"/>
  <path fill-rule="evenodd" clip-rule="evenodd" d="M135.5 70.7758L89.733 89.7331L70.7758 135.5L89.733 181.267L135.5 200.224L181.267 181.267L200.224 135.5L181.267 89.7331L135.5 70.7758ZM135.5 78.6827L175.676 95.3241L192.317 135.5L175.676 175.676L135.5 192.317L95.3241 175.676L78.6827 135.5L95.3241 95.3241L135.5 78.6827Z" fill="white"/>
  <path fill-rule="evenodd" clip-rule="evenodd" d="M135.5 46.6515L83.2761 63.62L51 108.044V162.956L83.2761 207.38L135.5 224.349L187.724 207.38L220 162.956V108.044L187.724 63.62L135.5 46.6515ZM135.5 54.3325L183.209 69.8341L212.695 110.418V160.582L183.209 201.166L135.5 216.668L87.7909 201.166L58.3051 160.582V110.418L87.7909 69.8341L135.5 54.3325Z" fill="white"/>
</svg> 