<svg width="137" height="33" viewBox="0 0 137 33" fill="currentcolor" xmlns="http://www.w3.org/2000/svg">
<path d="M46.194 20.2007H46.1191C46.0392 20.7176 45.7696 21.1466 45.3103 21.4879C44.8509 21.8292 44.2268 21.9999 43.438 21.9999C42.8389 21.9999 42.2797 21.8877 41.7604 21.6635C41.2412 21.4392 40.7868 21.1076 40.3974 20.6688C40.0079 20.23 39.7034 19.6839 39.4837 19.0305C39.264 18.3772 39.1542 17.6214 39.1542 16.7633C39.1542 15.9051 39.269 15.1445 39.4987 14.4814C39.7283 13.8183 40.0479 13.2625 40.4573 12.8139C40.8767 12.3653 41.376 12.024 41.9551 11.79C42.5343 11.5559 43.1784 11.4389 43.8873 11.4389C44.826 11.4389 45.6348 11.6388 46.3138 12.0386C46.9928 12.4287 47.5271 13.0187 47.9165 13.8085L46.0592 14.8471C45.8994 14.4473 45.6498 14.1108 45.3103 13.8378C44.9708 13.555 44.4965 13.4136 43.8873 13.4136C43.1784 13.4136 42.6142 13.6135 42.1948 14.0133C41.7754 14.4131 41.5657 15.0421 41.5657 15.9003V17.5385C41.5657 18.3869 41.7754 19.0159 42.1948 19.4255C42.6142 19.8253 43.1784 20.0252 43.8873 20.0252C44.1669 20.0252 44.4316 19.9959 44.6812 19.9374C44.9308 19.8692 45.1505 19.7716 45.3402 19.6449C45.53 19.5084 45.6748 19.3475 45.7746 19.1622C45.8845 18.9769 45.9394 18.7575 45.9394 18.5039V17.992H43.9922V16.1343H48.1112V21.8244H46.194V20.2007Z"/>
<path d="M55.7315 21.9999C55.1323 21.9999 54.5981 21.9072 54.1288 21.722C53.6595 21.5269 53.26 21.2588 52.9305 20.9175C52.611 20.5664 52.3663 20.1422 52.1966 19.6449C52.0368 19.1475 51.9569 18.5917 51.9569 17.9774C51.9569 17.3728 52.0368 16.8267 52.1966 16.3391C52.3563 15.8418 52.591 15.4176 52.9006 15.0665C53.2201 14.7154 53.6095 14.4473 54.0689 14.262C54.5282 14.067 55.0525 13.9695 55.6416 13.9695C56.2907 13.9695 56.8449 14.0767 57.3042 14.2913C57.7735 14.5058 58.153 14.7935 58.4426 15.1543C58.7421 15.5151 58.9568 15.9344 59.0866 16.4122C59.2264 16.8803 59.2963 17.3728 59.2963 17.8896V18.5332H54.2486V18.6502C54.2486 19.1573 54.3884 19.562 54.668 19.8643C54.9476 20.1568 55.387 20.3031 55.9861 20.3031C56.4454 20.3031 56.8199 20.2153 57.1095 20.0398C57.3991 19.8545 57.6687 19.6351 57.9183 19.3816L59.0267 20.7273C58.6772 21.1271 58.2179 21.4392 57.6487 21.6635C57.0895 21.8877 56.4504 21.9999 55.7315 21.9999ZM55.6865 15.5638C55.2372 15.5638 54.8827 15.7101 54.6231 16.0027C54.3734 16.2855 54.2486 16.6658 54.2486 17.1436V17.2606H57.0046V17.129C57.0046 16.6609 56.8948 16.2855 56.6751 16.0027C56.4654 15.7101 56.1359 15.5638 55.6865 15.5638Z"/>
<path d="M66.2991 21.9999C65.7199 21.9999 65.2006 21.9072 64.7413 21.722C64.292 21.5367 63.9075 21.2685 63.588 20.9175C63.2784 20.5664 63.0388 20.1422 62.869 19.6449C62.6993 19.1475 62.6144 18.5917 62.6144 17.9774C62.6144 17.363 62.6993 16.8072 62.869 16.3098C63.0388 15.8125 63.2784 15.3932 63.588 15.0519C63.9075 14.7008 64.292 14.4327 64.7413 14.2474C65.2006 14.0621 65.7199 13.9695 66.2991 13.9695C66.8782 13.9695 67.3925 14.0621 67.8418 14.2474C68.3012 14.4327 68.6856 14.7008 68.9952 15.0519C69.3147 15.3932 69.5593 15.8125 69.7291 16.3098C69.8989 16.8072 69.9837 17.363 69.9837 17.9774C69.9837 18.5917 69.8989 19.1475 69.7291 19.6449C69.5593 20.1422 69.3147 20.5664 68.9952 20.9175C68.6856 21.2685 68.3012 21.5367 67.8418 21.722C67.3925 21.9072 66.8782 21.9999 66.2991 21.9999ZM66.2991 20.2885C66.7384 20.2885 67.0779 20.1568 67.3176 19.8935C67.5572 19.6302 67.6771 19.2548 67.6771 18.7672V17.2021C67.6771 16.7145 67.5572 16.3391 67.3176 16.0758C67.0779 15.8125 66.7384 15.6809 66.2991 15.6809C65.8597 15.6809 65.5202 15.8125 65.2805 16.0758C65.0409 16.3391 64.921 16.7145 64.921 17.2021V18.7672C64.921 19.2548 65.0409 19.6302 65.2805 19.8935C65.5202 20.1568 65.8597 20.2885 66.2991 20.2885Z"/>
<path d="M78.633 20.5371H78.5581C78.4982 20.7419 78.4034 20.937 78.2736 21.1222C78.1437 21.2978 77.984 21.4538 77.7943 21.5903C77.6145 21.7171 77.4048 21.8146 77.1652 21.8829C76.9355 21.9609 76.6958 21.9999 76.4462 21.9999C75.4476 21.9999 74.6937 21.6586 74.1845 20.976C73.6752 20.2836 73.4206 19.2841 73.4206 17.9774C73.4206 16.6706 73.6752 15.676 74.1845 14.9934C74.6937 14.3108 75.4476 13.9695 76.4462 13.9695C76.9555 13.9695 77.4048 14.106 77.7943 14.379C78.1937 14.6521 78.4483 15.0031 78.5581 15.4322H78.633V11.0001H80.8498V21.8244H78.633V20.5371ZM77.1801 20.2446C77.5995 20.2446 77.944 20.1471 78.2136 19.9521C78.4932 19.7473 78.633 19.4693 78.633 19.1183V16.851C78.633 16.5 78.4932 16.2269 78.2136 16.0319C77.944 15.8271 77.5995 15.7247 77.1801 15.7247C76.7607 15.7247 76.4112 15.871 76.1316 16.1636C75.862 16.4464 75.7272 16.8315 75.7272 17.3191V18.6502C75.7272 19.1378 75.862 19.5279 76.1316 19.8204C76.4112 20.1032 76.7607 20.2446 77.1801 20.2446Z"/>
<path d="M88.4498 21.9999C87.8507 21.9999 87.3165 21.9072 86.8471 21.722C86.3778 21.5269 85.9784 21.2588 85.6489 20.9175C85.3293 20.5664 85.0847 20.1422 84.9149 19.6449C84.7552 19.1475 84.6753 18.5917 84.6753 17.9774C84.6753 17.3728 84.7552 16.8267 84.9149 16.3391C85.0747 15.8418 85.3094 15.4176 85.6189 15.0665C85.9385 14.7154 86.3279 14.4473 86.7872 14.262C87.2466 14.067 87.7708 13.9695 88.36 13.9695C89.009 13.9695 89.5632 14.0767 90.0226 14.2913C90.4919 14.5058 90.8713 14.7935 91.1609 15.1543C91.4605 15.5151 91.6752 15.9344 91.805 16.4122C91.9448 16.8803 92.0147 17.3728 92.0147 17.8896V18.5332H86.967V18.6502C86.967 19.1573 87.1068 19.562 87.3864 19.8643C87.666 20.1568 88.1053 20.3031 88.7045 20.3031C89.1638 20.3031 89.5383 20.2153 89.8278 20.0398C90.1174 19.8545 90.387 19.6351 90.6367 19.3816L91.7451 20.7273C91.3956 21.1271 90.9362 21.4392 90.3671 21.6635C89.8079 21.8877 89.1688 21.9999 88.4498 21.9999ZM88.4049 15.5638C87.9555 15.5638 87.6011 15.7101 87.3414 16.0027C87.0918 16.2855 86.967 16.6658 86.967 17.1436V17.2606H89.723V17.129C89.723 16.6609 89.6131 16.2855 89.3935 16.0027C89.1838 15.7101 88.8542 15.5638 88.4049 15.5638Z"/>
<path d="M96.5759 21.8244L95.2878 14.2766H96.0517L97.1451 21.093H97.25L98.8077 14.2766H99.7963L101.354 21.093H101.459L102.537 14.2766H103.286L101.998 21.8244H100.845L99.3469 15.1396H99.2571L97.7293 21.8244H96.5759Z"/>
<path d="M110.515 21.9999C108.418 21.9999 107.145 20.5371 107.145 18.0505C107.145 15.5638 108.418 14.1011 110.515 14.1011C112.612 14.1011 113.885 15.5638 113.885 18.0505C113.885 20.5371 112.612 21.9999 110.515 21.9999ZM110.515 21.2685C112.028 21.2685 112.971 20.3031 112.971 18.5186V17.5824C112.971 15.7979 112.028 14.8325 110.515 14.8325C109.002 14.8325 108.058 15.7979 108.058 17.5824V18.5186C108.058 20.3031 109.002 21.2685 110.515 21.2685Z"/>
<path d="M118.418 21.8244V21.1076H120.844V14.9934H118.418V14.2766H121.698V16.0027H121.758C122.072 15.0811 122.746 14.2766 124.274 14.2766H125.607V15.0958H124.02C122.627 15.0958 121.698 15.9734 121.698 17.3337V21.1076H124.274V21.8244H118.418Z"/>
<path d="M130.245 21.8244V11.0001H131.098V18.1383H131.158L132.671 16.7925L135.547 14.2766H136.611L133.3 17.2314L137 21.8244H135.937L132.641 17.7287L131.098 19.0598V21.8244H130.245Z"/>
<path fill-rule="evenodd" clip-rule="evenodd" d="M16.069 13.0741L12.5609 16.5L16.069 19.9259L19.5771 16.5L16.069 13.0741ZM14.5254 16.5L16.069 18.0074L17.6125 16.5L16.069 14.9926L14.5254 16.5Z"/>
<path fill-rule="evenodd" clip-rule="evenodd" d="M16.069 8.90408L22.8051 12.702V20.298L16.069 24.0959L9.33286 20.298V12.702L16.069 8.90408ZM21.4159 13.4853L16.069 10.4706L10.722 13.4853V19.5147L16.069 22.5294L21.4159 19.5147V13.4853Z"/>
<path fill-rule="evenodd" clip-rule="evenodd" d="M16.069 4.48011L7.36568 8.00065L3.76066 16.5L7.36568 24.9993L16.069 28.5199L24.7722 24.9993L28.3773 16.5L24.7722 8.00065L16.069 4.48011ZM16.069 5.9485L23.709 9.03897L26.8736 16.5L23.709 23.961L16.069 27.0515L8.42891 23.961L5.26429 16.5L8.42891 9.03897L16.069 5.9485Z"/>
<path fill-rule="evenodd" clip-rule="evenodd" d="M16.069 0L6.1378 3.15122L0 11.4012V21.5988L6.1378 29.8488L16.069 33L26.0001 29.8488L32.1379 21.5988V11.4012L26.0001 3.15122L16.069 0ZM16.069 1.42644L25.1416 4.30523L30.7488 11.842V21.158L25.1416 28.6948L16.069 31.5736L6.99635 28.6948L1.38917 21.158V11.842L6.99635 4.30523L16.069 1.42644Z"/>
</svg>
