<svg width="300" height="300" viewBox="0 0 300 300" fill="none" xmlns="http://www.w3.org/2000/svg" stroke="#2D4FD2" stroke-width="10">
<path d="M150 129L171 150L150 171L129 150L150 129Z"/>
<path d="M150 93L199.363 121.5V178.5L150 207L100.637 178.5V121.5L150 93Z"/>
<path d="M150 56L216.468 83.532L244 150L216.468 216.468L150 244L83.532 216.468L56 150L83.532 83.532L150 56Z"/>
<path d="M150 19L227 44.0188L274.588 109.519V190.481L227 255.981L150 281L73.0001 255.981L25.4116 190.481V109.519L73.0001 44.0188L150 19Z"/>
</svg>