<svg width="622" height="271" viewBox="0 0 622 271" fill="none" xmlns="http://www.w3.org/2000/svg">
<path d="M113.925 217.159H113.572C113.196 219.65 111.928 221.717 109.766 223.361C107.605 225.006 104.668 225.828 100.957 225.828C98.1374 225.828 95.5062 225.288 93.063 224.207C90.6197 223.126 88.4819 221.529 86.6494 219.415C84.817 217.3 83.3839 214.669 82.3502 211.521C81.3165 208.373 80.7997 204.732 80.7997 200.597C80.7997 196.462 81.34 192.797 82.4207 189.602C83.5014 186.407 85.0049 183.729 86.9313 181.568C88.9047 179.406 91.254 177.762 93.9792 176.634C96.7044 175.506 99.735 174.943 103.071 174.943C107.488 174.943 111.293 175.906 114.489 177.832C117.684 179.712 120.197 182.554 122.03 186.36L113.29 191.364C112.539 189.438 111.364 187.817 109.766 186.501C108.169 185.138 105.937 184.457 103.071 184.457C99.735 184.457 97.0803 185.42 95.1069 187.347C93.1335 189.273 92.1468 192.304 92.1468 196.439V204.332C92.1468 208.42 93.1335 211.45 95.1069 213.424C97.0803 215.35 99.735 216.314 103.071 216.314C104.387 216.314 105.632 216.173 106.806 215.891C107.981 215.562 109.015 215.092 109.907 214.481C110.8 213.823 111.481 213.048 111.951 212.155C112.468 211.263 112.727 210.205 112.727 208.984V206.517H103.564V197.566H122.946V224.982H113.925V217.159Z" fill="#2D4FD2"/>
<path d="M158.802 225.828C155.983 225.828 153.469 225.382 151.261 224.489C149.052 223.549 147.173 222.257 145.622 220.613C144.119 218.921 142.968 216.877 142.169 214.481C141.417 212.085 141.041 209.407 141.041 206.447C141.041 203.533 141.417 200.902 142.169 198.553C142.921 196.157 144.025 194.113 145.482 192.421C146.985 190.73 148.818 189.438 150.979 188.545C153.14 187.605 155.607 187.135 158.379 187.135C161.433 187.135 164.041 187.652 166.202 188.686C168.411 189.72 170.196 191.106 171.559 192.844C172.968 194.583 173.978 196.603 174.589 198.905C175.247 201.161 175.576 203.533 175.576 206.024V209.125H151.825V209.689C151.825 212.132 152.482 214.082 153.798 215.538C155.114 216.948 157.181 217.653 160 217.653C162.161 217.653 163.923 217.23 165.286 216.384C166.649 215.491 167.917 214.434 169.092 213.212L174.307 219.697C172.663 221.623 170.501 223.126 167.823 224.207C165.192 225.288 162.185 225.828 158.802 225.828ZM158.591 194.818C156.476 194.818 154.808 195.522 153.587 196.932C152.412 198.294 151.825 200.127 151.825 202.429V202.993H164.793V202.359C164.793 200.103 164.276 198.294 163.242 196.932C162.255 195.522 160.705 194.818 158.591 194.818Z" fill="#2D4FD2"/>
<path d="M208.526 225.828C205.801 225.828 203.358 225.382 201.197 224.489C199.082 223.596 197.273 222.304 195.77 220.613C194.313 218.921 193.186 216.877 192.387 214.481C191.588 212.085 191.189 209.407 191.189 206.447C191.189 203.486 191.588 200.808 192.387 198.412C193.186 196.016 194.313 193.995 195.77 192.351C197.273 190.659 199.082 189.367 201.197 188.474C203.358 187.582 205.801 187.135 208.526 187.135C211.252 187.135 213.671 187.582 215.786 188.474C217.947 189.367 219.756 190.659 221.213 192.351C222.716 193.995 223.867 196.016 224.666 198.412C225.465 200.808 225.864 203.486 225.864 206.447C225.864 209.407 225.465 212.085 224.666 214.481C223.867 216.877 222.716 218.921 221.213 220.613C219.756 222.304 217.947 223.596 215.786 224.489C213.671 225.382 211.252 225.828 208.526 225.828ZM208.526 217.582C210.594 217.582 212.191 216.948 213.319 215.679C214.447 214.411 215.01 212.602 215.01 210.252V202.711C215.01 200.362 214.447 198.553 213.319 197.284C212.191 196.016 210.594 195.381 208.526 195.381C206.459 195.381 204.862 196.016 203.734 197.284C202.606 198.553 202.042 200.362 202.042 202.711V210.252C202.042 212.602 202.606 214.411 203.734 215.679C204.862 216.948 206.459 217.582 208.526 217.582Z" fill="#2D4FD2"/>
<path d="M266.562 218.78H266.21C265.928 219.767 265.482 220.707 264.871 221.599C264.26 222.445 263.508 223.197 262.616 223.855C261.77 224.466 260.783 224.935 259.655 225.264C258.575 225.64 257.447 225.828 256.272 225.828C251.574 225.828 248.026 224.184 245.63 220.895C243.234 217.559 242.036 212.743 242.036 206.447C242.036 200.15 243.234 195.358 245.63 192.069C248.026 188.78 251.574 187.135 256.272 187.135C258.669 187.135 260.783 187.793 262.616 189.109C264.495 190.424 265.693 192.116 266.21 194.183H266.562V172.828H276.993V224.982H266.562V218.78ZM259.726 217.371C261.699 217.371 263.32 216.901 264.589 215.961C265.905 214.974 266.562 213.635 266.562 211.944V201.02C266.562 199.328 265.905 198.013 264.589 197.073C263.32 196.086 261.699 195.593 259.726 195.593C257.752 195.593 256.108 196.298 254.792 197.707C253.524 199.07 252.889 200.926 252.889 203.275V209.689C252.889 212.038 253.524 213.917 254.792 215.327C256.108 216.689 257.752 217.371 259.726 217.371Z" fill="#2D4FD2"/>
<path d="M312.754 225.828C309.935 225.828 307.421 225.382 305.213 224.489C303.004 223.549 301.125 222.257 299.574 220.613C298.071 218.921 296.92 216.877 296.121 214.481C295.369 212.085 294.993 209.407 294.993 206.447C294.993 203.533 295.369 200.902 296.121 198.553C296.873 196.157 297.977 194.113 299.433 192.421C300.937 190.73 302.769 189.438 304.931 188.545C307.092 187.605 309.559 187.135 312.331 187.135C315.385 187.135 317.993 187.652 320.154 188.686C322.363 189.72 324.148 191.106 325.511 192.844C326.92 194.583 327.93 196.603 328.541 198.905C329.199 201.161 329.528 203.533 329.528 206.024V209.125H305.777V209.689C305.777 212.132 306.434 214.082 307.75 215.538C309.066 216.948 311.133 217.653 313.952 217.653C316.113 217.653 317.875 217.23 319.238 216.384C320.601 215.491 321.869 214.434 323.044 213.212L328.259 219.697C326.615 221.623 324.453 223.126 321.775 224.207C319.144 225.288 316.137 225.828 312.754 225.828ZM312.543 194.818C310.428 194.818 308.76 195.522 307.539 196.932C306.364 198.294 305.777 200.127 305.777 202.429V202.993H318.745V202.359C318.745 200.103 318.228 198.294 317.194 196.932C316.207 195.522 314.657 194.818 312.543 194.818Z" fill="#2D4FD2"/>
<path d="M350.99 224.982L344.929 188.615H348.524L353.669 221.458H354.162L361.492 188.615H366.143L373.473 221.458H373.966L379.041 188.615H382.565L376.504 224.982H371.077L364.029 192.774H363.606L356.417 224.982H350.99Z" fill="#2D4FD2"/>
<path d="M416.578 225.828C406.711 225.828 400.721 218.78 400.721 206.799C400.721 194.818 406.711 187.77 416.578 187.77C426.445 187.77 432.436 194.818 432.436 206.799C432.436 218.78 426.445 225.828 416.578 225.828ZM416.578 222.304C423.697 222.304 428.137 217.653 428.137 209.054V204.544C428.137 195.945 423.697 191.294 416.578 191.294C409.46 191.294 405.02 195.945 405.02 204.544V209.054C405.02 217.653 409.46 222.304 416.578 222.304Z" fill="#2D4FD2"/>
<path d="M453.764 224.982V221.529H465.181V192.069H453.764V188.615H469.199V196.932H469.48C470.961 192.492 474.132 188.615 481.321 188.615H487.593V192.562H480.123C473.568 192.562 469.199 196.791 469.199 203.345V221.529H481.321V224.982H453.764Z" fill="#2D4FD2"/>
<path d="M509.414 224.982V172.828H513.432V207.222H513.714L520.832 200.738L534.364 188.615H539.368L523.792 202.852L541.2 224.982H536.196L520.691 205.248L513.432 211.662V224.982H509.414Z" fill="#2D4FD2"/>
<path fill-rule="evenodd" clip-rule="evenodd" d="M311 79.5849L299.071 91.5144L311 103.444L322.929 91.5144L311 79.5849ZM305.751 91.5144L311 96.7632L316.249 91.5144L311 86.2656L305.751 91.5144Z" fill="#2D4FD2"/>
<path fill-rule="evenodd" clip-rule="evenodd" d="M311 65.0644L333.906 78.2894V104.739L311 117.964L288.094 104.739V78.2894L311 65.0644ZM329.182 81.0168L311 70.5192L292.818 81.0168V102.012L311 112.51L329.182 102.012V81.0168Z" fill="#2D4FD2"/>
<path fill-rule="evenodd" clip-rule="evenodd" d="M311 49.6596L281.404 61.9186L269.145 91.5144L281.404 121.11L311 133.369L340.596 121.11L352.855 91.5144L340.596 61.9186L311 49.6596ZM311 54.7728L336.98 65.5341L347.742 91.5144L336.98 117.495L311 128.256L285.02 117.495L274.258 91.5144L285.02 65.5341L311 54.7728Z" fill="#2D4FD2"/>
<path fill-rule="evenodd" clip-rule="evenodd" d="M311 34.0593L277.229 45.0323L256.357 73.7598V109.269L277.229 137.996L311 148.969L344.771 137.996L365.643 109.269V73.7598L344.771 45.0323L311 34.0593ZM311 39.0263L341.852 49.0507L360.919 75.2947V107.734L341.852 133.978L311 144.002L280.148 133.978L261.081 107.734V75.2947L280.148 49.0507L311 39.0263Z" fill="#2D4FD2"/>
</svg>
