<svg width="340" height="271" viewBox="0 0 340 271" fill="none" xmlns="http://www.w3.org/2000/svg">
<path d="M78.7609 222.716H78.4085C78.0326 225.206 76.764 227.273 74.6027 228.918C72.4413 230.562 69.5047 231.384 65.7928 231.384C62.9737 231.384 60.3425 230.844 57.8992 229.763C55.4559 228.683 53.3181 227.085 51.4856 224.971C49.6532 222.857 48.2201 220.225 47.1864 217.077C46.1527 213.929 45.6359 210.288 45.6359 206.153C45.6359 202.018 46.1762 198.353 47.2569 195.158C48.3376 191.963 49.8411 189.285 51.7675 187.124C53.7409 184.962 56.0902 183.318 58.8154 182.19C61.5406 181.063 64.5712 180.499 67.9072 180.499C72.3238 180.499 76.1297 181.462 79.3247 183.388C82.5198 185.268 85.0335 188.111 86.866 191.916L78.1266 196.92C77.3748 194.994 76.2002 193.373 74.6027 192.057C73.0051 190.695 70.7733 190.013 67.9072 190.013C64.5712 190.013 61.9165 190.977 59.9431 192.903C57.9697 194.829 56.983 197.86 56.983 201.995V209.888C56.983 213.976 57.9697 217.007 59.9431 218.98C61.9165 220.907 64.5712 221.87 67.9072 221.87C69.2228 221.87 70.4679 221.729 71.6425 221.447C72.8172 221.118 73.8509 220.648 74.7436 220.037C75.6363 219.38 76.3176 218.604 76.7875 217.712C77.3043 216.819 77.5628 215.762 77.5628 214.54V212.073H68.4005V203.122H87.7822V230.539H78.7609V222.716Z" fill="#2D4FD2"/>
<path d="M123.638 231.384C120.819 231.384 118.305 230.938 116.097 230.045C113.889 229.106 112.009 227.814 110.459 226.169C108.955 224.478 107.804 222.434 107.005 220.037C106.253 217.641 105.878 214.963 105.878 212.003C105.878 209.09 106.253 206.458 107.005 204.109C107.757 201.713 108.861 199.669 110.318 197.978C111.821 196.286 113.654 194.994 115.815 194.101C117.976 193.161 120.443 192.692 123.215 192.692C126.269 192.692 128.877 193.208 131.038 194.242C133.247 195.276 135.032 196.662 136.395 198.4C137.804 200.139 138.815 202.159 139.425 204.462C140.083 206.717 140.412 209.09 140.412 211.58V214.681H116.661V215.245C116.661 217.688 117.319 219.638 118.634 221.095C119.95 222.504 122.017 223.209 124.836 223.209C126.998 223.209 128.76 222.786 130.122 221.94C131.485 221.048 132.753 219.99 133.928 218.769L139.144 225.253C137.499 227.179 135.338 228.683 132.66 229.763C130.028 230.844 127.021 231.384 123.638 231.384ZM123.427 200.374C121.312 200.374 119.644 201.079 118.423 202.488C117.248 203.851 116.661 205.683 116.661 207.986V208.549H129.629V207.915C129.629 205.66 129.112 203.851 128.078 202.488C127.092 201.079 125.541 200.374 123.427 200.374Z" fill="#2D4FD2"/>
<path d="M173.363 231.384C170.637 231.384 168.194 230.938 166.033 230.045C163.918 229.153 162.11 227.861 160.606 226.169C159.149 224.478 158.022 222.434 157.223 220.037C156.424 217.641 156.025 214.963 156.025 212.003C156.025 209.043 156.424 206.365 157.223 203.968C158.022 201.572 159.149 199.552 160.606 197.907C162.11 196.216 163.918 194.923 166.033 194.031C168.194 193.138 170.637 192.692 173.363 192.692C176.088 192.692 178.508 193.138 180.622 194.031C182.783 194.923 184.592 196.216 186.049 197.907C187.552 199.552 188.703 201.572 189.502 203.968C190.301 206.365 190.7 209.043 190.7 212.003C190.7 214.963 190.301 217.641 189.502 220.037C188.703 222.434 187.552 224.478 186.049 226.169C184.592 227.861 182.783 229.153 180.622 230.045C178.508 230.938 176.088 231.384 173.363 231.384ZM173.363 223.138C175.43 223.138 177.028 222.504 178.155 221.236C179.283 219.967 179.847 218.158 179.847 215.809V208.267C179.847 205.918 179.283 204.109 178.155 202.841C177.028 201.572 175.43 200.938 173.363 200.938C171.295 200.938 169.698 201.572 168.57 202.841C167.442 204.109 166.879 205.918 166.879 208.267V215.809C166.879 218.158 167.442 219.967 168.57 221.236C169.698 222.504 171.295 223.138 173.363 223.138Z" fill="#2D4FD2"/>
<path d="M231.399 224.337H231.046C230.764 225.323 230.318 226.263 229.707 227.156C229.096 228.001 228.344 228.753 227.452 229.411C226.606 230.022 225.619 230.492 224.492 230.821C223.411 231.197 222.283 231.384 221.109 231.384C216.41 231.384 212.863 229.74 210.466 226.451C208.07 223.115 206.872 218.299 206.872 212.003C206.872 205.707 208.07 200.914 210.466 197.625C212.863 194.336 216.41 192.692 221.109 192.692C223.505 192.692 225.619 193.349 227.452 194.665C229.331 195.981 230.529 197.672 231.046 199.74H231.399V178.384H241.829V230.539H231.399V224.337ZM224.562 222.927C226.536 222.927 228.157 222.457 229.425 221.517C230.741 220.531 231.399 219.192 231.399 217.5V206.576C231.399 204.884 230.741 203.569 229.425 202.629C228.157 201.642 226.536 201.149 224.562 201.149C222.589 201.149 220.944 201.854 219.629 203.263C218.36 204.626 217.726 206.482 217.726 208.831V215.245C217.726 217.594 218.36 219.474 219.629 220.883C220.944 222.246 222.589 222.927 224.562 222.927Z" fill="#2D4FD2"/>
<path d="M277.59 231.384C274.771 231.384 272.257 230.938 270.049 230.045C267.841 229.106 265.961 227.814 264.411 226.169C262.907 224.478 261.756 222.434 260.957 220.037C260.205 217.641 259.83 214.963 259.83 212.003C259.83 209.09 260.205 206.458 260.957 204.109C261.709 201.713 262.813 199.669 264.27 197.978C265.773 196.286 267.606 194.994 269.767 194.101C271.928 193.161 274.395 192.692 277.167 192.692C280.221 192.692 282.829 193.208 284.99 194.242C287.199 195.276 288.984 196.662 290.347 198.4C291.756 200.139 292.767 202.159 293.377 204.462C294.035 206.717 294.364 209.09 294.364 211.58V214.681H270.613V215.245C270.613 217.688 271.271 219.638 272.586 221.095C273.902 222.504 275.969 223.209 278.788 223.209C280.95 223.209 282.712 222.786 284.074 221.94C285.437 221.048 286.705 219.99 287.88 218.769L293.096 225.253C291.451 227.179 289.29 228.683 286.611 229.763C283.98 230.844 280.973 231.384 277.59 231.384ZM277.379 200.374C275.264 200.374 273.596 201.079 272.375 202.488C271.2 203.851 270.613 205.683 270.613 207.986V208.549H283.581V207.915C283.581 205.66 283.064 203.851 282.03 202.488C281.044 201.079 279.493 200.374 277.379 200.374Z" fill="#2D4FD2"/>
<path fill-rule="evenodd" clip-rule="evenodd" d="M170 85.1412L158.071 97.0706L170 109L181.929 97.0706L170 85.1412ZM164.751 97.0706L170 102.319L175.249 97.0706L170 91.8218L164.751 97.0706Z" fill="#2D4FD2"/>
<path fill-rule="evenodd" clip-rule="evenodd" d="M170 70.6207L192.906 83.8457V110.296L170 123.521L147.094 110.296V83.8457L170 70.6207ZM188.182 86.573L170 76.0754L151.818 86.573V107.568L170 118.066L188.182 107.568V86.573Z" fill="#2D4FD2"/>
<path fill-rule="evenodd" clip-rule="evenodd" d="M170 55.2159L140.404 67.4749L128.145 97.0706L140.404 126.666L170 138.925L199.596 126.666L211.855 97.0706L199.596 67.4749L170 55.2159ZM170 60.329L195.98 71.0904L206.742 97.0706L195.98 123.051L170 133.812L144.02 123.051L133.258 97.0706L144.02 71.0904L170 60.329Z" fill="#2D4FD2"/>
<path fill-rule="evenodd" clip-rule="evenodd" d="M170 39.6156L136.229 50.5885L115.357 79.316V114.825L136.229 143.553L170 154.526L203.771 143.553L224.643 114.825V79.316L203.771 50.5885L170 39.6156ZM170 44.5826L200.852 54.6069L219.919 80.8509V113.29L200.852 139.534L170 149.559L139.148 139.534L120.081 113.29V80.8509L139.148 54.6069L170 44.5826Z" fill="#2D4FD2"/>
</svg>
