<svg width="64" height="64" viewBox="0 0 64 64" fill="none" xmlns="http://www.w3.org/2000/svg">
<circle cx="32" cy="32" r="31.25" fill="#2D4FD2" stroke="white" stroke-width="1.5"/>
<path fill-rule="evenodd" clip-rule="evenodd" d="M32.1639 28.2195L27.5435 32.7317L32.1639 37.2438L36.7844 32.7317L32.1639 28.2195ZM30.131 32.7317L32.1639 34.7169L34.1969 32.7317L32.1639 30.7464L30.131 32.7317Z" fill="white"/>
<path fill-rule="evenodd" clip-rule="evenodd" d="M32.1639 22.7273L41.0359 27.7295V37.7338L32.1639 42.736L23.292 37.7338V27.7295L32.1639 22.7273ZM39.2062 28.7611L32.1639 24.7905L25.1217 28.7611V36.7022L32.1639 40.6728L39.2062 36.7022V28.7611Z" fill="white"/>
<path fill-rule="evenodd" clip-rule="evenodd" d="M32.1639 16.9006L20.7011 21.5374L15.9531 32.7317L20.7011 43.9259L32.1639 48.5627L43.6268 43.9259L48.3748 32.7317L43.6268 21.5374L32.1639 16.9006ZM32.1639 18.8346L42.2264 22.905L46.3945 32.7317L42.2264 42.5584L32.1639 46.6287L22.1015 42.5584L17.9334 32.7317L22.1015 22.905L32.1639 18.8346Z" fill="white"/>
<path fill-rule="evenodd" clip-rule="evenodd" d="M32.1639 11L19.0839 15.1504L11 26.0162V39.4471L19.0839 50.3129L32.1639 54.4633L45.244 50.3129L53.3279 39.4471V26.0162L45.244 15.1504L32.1639 11ZM32.1639 12.8787L44.1132 16.6703L51.4983 26.5968V38.8666L44.1132 48.793L32.1639 52.5846L20.2147 48.793L12.8296 38.8666V26.5968L20.2147 16.6703L32.1639 12.8787Z" fill="white"/>
</svg>
